<?xml version="1.0" encoding="utf-8"?>
<!-- Generator: Adobe Illustrator 16.0.0, SVG Export Plug-In . SVG Version: 6.00 Build 0)  -->
<!DOCTYPE svg PUBLIC "-//W3C//DTD SVG 1.1//EN" "http://www.w3.org/Graphics/SVG/1.1/DTD/svg11.dtd">
<svg version="1.1" id="Layer_1" xmlns="http://www.w3.org/2000/svg" xmlns:xlink="http://www.w3.org/1999/xlink" x="0px" y="0px"
	 width="218px" height="63px" viewBox="0 0 218 63" enable-background="new 0 0 218 63" xml:space="preserve">
<g>
	<path fill="#383838" d="M49.453,42.976c-1.772,0-3.306-0.354-4.488-1.063c-1.3-0.59-2.244-1.534-2.952-2.718
		c-0.71-1.181-1.064-2.597-1.064-4.253c0-13.701,0.118-16.065,0.118-26.339l6.614-4.724c0,9.92,0,19.963,0,29.884
		c0,1.18,0.236,2.128,0.708,2.601c0.592,0.472,1.3,0.708,2.247,0.708c0.59,0,1.298,0,2.006-0.236
		c0.592-0.236,1.182-0.472,1.772-0.708v6.022c-0.59,0.236-1.298,0.354-2.244,0.59C51.343,42.857,50.397,42.976,49.453,42.976
		L49.453,42.976z M57.839,15.337h6.497v4.488c0.59-1.538,1.534-2.836,2.834-3.662c1.418-0.944,2.834-1.416,4.37-1.416
		c0.944,0,1.89,0.118,2.716,0.472c0.946,0.354,1.654,0.826,2.244,1.534l-2.952,5.314c-0.944-0.59-1.89-0.826-2.954-0.826
		c-1.062,0-2.125,0.354-3.07,0.944c-0.944,0.708-1.772,1.892-2.362,3.308c-0.59,1.417-0.944,3.309-0.944,5.433v11.459h-6.378V15.337
		z M77.683,4.115h6.968v6.022h-6.968V4.115z M77.918,15.337h6.614v27.048h-6.614V15.337z M90.203,15.337h6.848v2.714
		c0.946-1.18,2.01-2.006,3.426-2.478c1.302-0.59,2.718-0.826,4.252-0.826c2.478,0,4.488,0.59,6.258,1.888
		c1.774,1.298,3.07,3.072,4.014,5.196c0.948,2.128,1.421,4.488,1.421,6.971c0,2.596-0.473,4.96-1.421,7.088
		c-0.943,2.124-2.239,3.895-4.014,5.196c-1.77,1.181-3.894,1.889-6.376,1.889c-1.538,0-2.954-0.236-4.252-0.826
		c-1.298-0.473-2.362-1.298-3.308-2.482v13.94h-6.848V15.337z M103.074,36.953c2.246,0,3.898-0.708,4.964-2.246
		c1.062-1.534,1.652-3.427,1.652-5.905c0-2.364-0.59-4.252-1.652-5.791c-1.066-1.416-2.718-2.124-4.964-2.124
		c-2.124,0-3.776,0.708-4.958,2.124c-1.064,1.538-1.654,3.426-1.654,5.791c0,2.478,0.59,4.371,1.654,5.905
		C99.297,36.245,100.95,36.953,103.074,36.953L103.074,36.953z"/>
	<g>
		<defs>
			<path id="SVGID_1_" d="M132.72,42.739c-2.479,0-4.488-0.59-6.377-1.771c-1.77-1.184-3.072-2.836-4.134-4.96
				c-0.944-2.128-1.416-4.489-1.416-7.089c0-2.482,0.472-4.724,1.416-6.852c0.826-2.124,2.242-3.898,4.016-5.196
				c1.771-1.298,3.898-1.888,6.377-1.888c2.481,0,4.605,0.59,6.38,1.888c1.889,1.18,3.309,2.954,4.252,5.314l-2.363,0.944
				c-0.826-1.77-1.889-3.186-3.309-4.252c-1.416-1.062-3.068-1.534-4.96-1.534c-2.007,0-3.658,0.472-5.078,1.534
				c-1.299,1.066-2.36,2.482-3.072,4.252c-0.708,1.774-1.063,3.662-1.063,5.79c0,2.124,0.354,4.017,1.063,5.787
				c0.712,1.656,1.773,3.072,3.189,4.134c1.303,1.063,3.072,1.538,5.079,1.538c1.892,0,3.544-0.476,4.964-1.538
				c1.298-0.943,2.36-2.478,2.95-4.252l2.364,0.944c-0.83,2.246-2.128,4.016-3.898,5.318
				C137.207,42.149,135.083,42.739,132.72,42.739L132.72,42.739z M152.918,42.739c-1.298,0-2.364-0.236-3.072-0.708
				c-0.708-0.59-1.18-1.298-1.416-2.128c-0.235-0.944-0.354-2.006-0.354-3.305V4.115h2.596v31.894c0,0.944,0.118,1.771,0.118,2.36
				c0.118,0.59,0.477,1.062,0.948,1.416c0.472,0.472,1.18,0.594,2.124,0.594c0.826,0,1.538,0,2.364-0.235l0.118,2.242
				C155.042,42.621,153.862,42.739,152.918,42.739L152.918,42.739z M168.865,42.739c-2.954,0-5.2-0.826-6.734-2.718
				c-1.652-1.771-2.482-4.248-2.482-7.32V15.337h2.482v16.655c0,2.597,0.59,4.725,1.888,6.141c1.303,1.534,3.072,2.246,5.437,2.246
				c1.652,0,3.068-0.357,4.252-1.065c1.181-0.708,2.124-1.652,2.833-2.95c0.59-1.303,0.947-2.837,0.947-4.607V15.337h2.597v27.048
				h-2.597v-5.079c-0.712,1.771-1.892,3.072-3.426,4.017C172.523,42.268,170.753,42.739,168.865,42.739L168.865,42.739z
				 M201.109,42.739c-1.656,0-3.072-0.236-4.488-0.826c-1.299-0.708-2.601-1.534-3.545-2.6c-1.062-1.181-1.888-2.479-2.364-4.017
				v7.089h-2.714V4.115h2.714v18.307c0.83-2.36,2.129-4.134,4.017-5.433c1.774-1.416,3.898-2.006,6.263-2.006
				c2.359,0,4.37,0.59,6.14,1.77c1.774,1.18,3.072,2.836,4.017,4.96c0.826,2.128,1.298,4.488,1.298,7.088
				c0,2.596-0.472,4.96-1.298,7.088c-0.944,2.124-2.242,3.776-4.017,5.078C205.361,42.149,203.351,42.739,201.109,42.739
				L201.109,42.739z M200.519,40.379c1.889,0,3.662-0.476,5.078-1.538c1.416-0.943,2.479-2.359,3.19-4.134
				c0.708-1.652,1.063-3.663,1.063-5.905c0-2.128-0.354-4.134-1.063-5.909c-0.712-1.77-1.774-3.068-3.19-4.134
				c-1.416-0.944-3.189-1.416-5.078-1.416c-2.01,0-3.662,0.472-5.196,1.416c-1.538,1.066-2.718,2.364-3.544,4.134
				c-0.826,1.774-1.302,3.78-1.302,5.909c0,2.242,0.476,4.134,1.302,5.905c0.826,1.774,2.006,3.19,3.544,4.134
				C196.856,39.903,198.509,40.379,200.519,40.379L200.519,40.379z"/>
		</defs>
		<clipPath id="SVGID_2_">
			<use xlink:href="#SVGID_1_"  overflow="visible"/>
		</clipPath>
		<polyline clip-path="url(#SVGID_2_)" fill="#12C9B7" points="120.793,4.115 121.028,4.115 121.028,42.739 120.793,42.739 		"/>
		<polyline clip-path="url(#SVGID_2_)" fill="#12C9B7" points="120.793,4.115 121.383,4.115 121.383,42.739 120.793,42.739 		"/>
		<polyline clip-path="url(#SVGID_2_)" fill="#12C9B7" points="121.146,4.115 121.736,4.115 121.736,42.739 121.146,42.739 		"/>
		<polyline clip-path="url(#SVGID_2_)" fill="#12CAB7" points="121.501,4.115 122.091,4.115 122.091,42.739 121.501,42.739 		"/>
		<polyline clip-path="url(#SVGID_2_)" fill="#12CAB6" points="121.854,4.115 122.444,4.115 122.444,42.739 121.854,42.739 		"/>
		<polyline clip-path="url(#SVGID_2_)" fill="#12CAB6" points="122.209,4.115 122.799,4.115 122.799,42.739 122.209,42.739 		"/>
		<polyline clip-path="url(#SVGID_2_)" fill="#12CAB6" points="122.563,4.115 123.152,4.115 123.152,42.739 122.563,42.739 		"/>
		<polyline clip-path="url(#SVGID_2_)" fill="#12CAB6" points="123.035,4.115 123.507,4.115 123.507,42.739 123.035,42.739 		"/>
		<polyline clip-path="url(#SVGID_2_)" fill="#12CAB6" points="123.389,4.115 123.86,4.115 123.86,42.739 123.389,42.739 		"/>
		<polyline clip-path="url(#SVGID_2_)" fill="#12CBB6" points="123.743,4.115 124.215,4.115 124.215,42.739 123.743,42.739 		"/>
		<polyline clip-path="url(#SVGID_2_)" fill="#12CBB6" points="124.097,4.115 124.573,4.115 124.573,42.739 124.097,42.739 		"/>
		<polyline clip-path="url(#SVGID_2_)" fill="#12CBB6" points="124.451,4.115 124.927,4.115 124.927,42.739 124.451,42.739 		"/>
		<polyline clip-path="url(#SVGID_2_)" fill="#12CBB5" points="124.809,4.115 125.281,4.115 125.281,42.739 124.809,42.739 		"/>
		<polyline clip-path="url(#SVGID_2_)" fill="#12CBB5" points="125.163,4.115 125.635,4.115 125.635,42.739 125.163,42.739 		"/>
		<polyline clip-path="url(#SVGID_2_)" fill="#12CBB5" points="125.517,4.115 125.989,4.115 125.989,42.739 125.517,42.739 		"/>
		<polyline clip-path="url(#SVGID_2_)" fill="#12CCB5" points="125.871,4.115 126.343,4.115 126.343,42.739 125.871,42.739 		"/>
		<polyline clip-path="url(#SVGID_2_)" fill="#12CCB5" points="126.225,4.115 126.697,4.115 126.697,42.739 126.225,42.739 		"/>
		<polyline clip-path="url(#SVGID_2_)" fill="#12CCB5" points="126.579,4.115 127.051,4.115 127.051,42.739 126.579,42.739 		"/>
		<polyline clip-path="url(#SVGID_2_)" fill="#12CCB5" points="126.933,4.115 127.405,4.115 127.405,42.739 126.933,42.739 		"/>
		<polyline clip-path="url(#SVGID_2_)" fill="#12CCB5" points="127.287,4.115 127.759,4.115 127.759,42.739 127.287,42.739 		"/>
		<polyline clip-path="url(#SVGID_2_)" fill="#12CCB4" points="127.641,4.115 128.113,4.115 128.113,42.739 127.641,42.739 		"/>
		<polyline clip-path="url(#SVGID_2_)" fill="#12CDB4" points="127.995,4.115 128.585,4.115 128.585,42.739 127.995,42.739 		"/>
		<polyline clip-path="url(#SVGID_2_)" fill="#12CDB4" points="128.349,4.115 128.943,4.115 128.943,42.739 128.349,42.739 		"/>
		<polyline clip-path="url(#SVGID_2_)" fill="#12CDB4" points="128.703,4.115 129.297,4.115 129.297,42.739 128.703,42.739 		"/>
		<polyline clip-path="url(#SVGID_2_)" fill="#12CDB4" points="129.057,4.115 129.651,4.115 129.651,42.739 129.057,42.739 		"/>
		<polyline clip-path="url(#SVGID_2_)" fill="#12CDB4" points="129.415,4.115 130.005,4.115 130.005,42.739 129.415,42.739 		"/>
		<polyline clip-path="url(#SVGID_2_)" fill="#12CDB4" points="129.77,4.115 130.359,4.115 130.359,42.739 129.77,42.739 		"/>
		<polyline clip-path="url(#SVGID_2_)" fill="#12CEB4" points="130.123,4.115 130.713,4.115 130.713,42.739 130.123,42.739 		"/>
		<polyline clip-path="url(#SVGID_2_)" fill="#12CEB3" points="130.478,4.115 131.067,4.115 131.067,42.739 130.478,42.739 		"/>
		<polyline clip-path="url(#SVGID_2_)" fill="#12CEB3" points="130.831,4.115 131.421,4.115 131.421,42.739 130.831,42.739 		"/>
		<polyline clip-path="url(#SVGID_2_)" fill="#12CEB3" points="131.186,4.115 131.775,4.115 131.775,42.739 131.186,42.739 		"/>
		<polyline clip-path="url(#SVGID_2_)" fill="#12CEB3" points="131.539,4.115 132.129,4.115 132.129,42.739 131.539,42.739 		"/>
		<polyline clip-path="url(#SVGID_2_)" fill="#12CFB3" points="131.894,4.115 132.483,4.115 132.483,42.739 131.894,42.739 		"/>
		<polyline clip-path="url(#SVGID_2_)" fill="#12CFB3" points="132.247,4.115 132.837,4.115 132.837,42.739 132.247,42.739 		"/>
		<polyline clip-path="url(#SVGID_2_)" fill="#12CFB3" points="132.602,4.115 133.191,4.115 133.191,42.739 132.602,42.739 		"/>
		<polyline clip-path="url(#SVGID_2_)" fill="#12CFB3" points="132.955,4.115 133.55,4.115 133.55,42.739 132.955,42.739 		"/>
		<polyline clip-path="url(#SVGID_2_)" fill="#12CFB2" points="133.313,4.115 133.903,4.115 133.903,42.739 133.313,42.739 		"/>
		<polyline clip-path="url(#SVGID_2_)" fill="#12CFB2" points="133.667,4.115 134.258,4.115 134.258,42.739 133.667,42.739 		"/>
		<polyline clip-path="url(#SVGID_2_)" fill="#12D0B2" points="134.021,4.115 134.611,4.115 134.611,42.739 134.021,42.739 		"/>
		<polyline clip-path="url(#SVGID_2_)" fill="#12D0B2" points="134.493,4.115 134.966,4.115 134.966,42.739 134.493,42.739 		"/>
		<polyline clip-path="url(#SVGID_2_)" fill="#12D0B2" points="134.848,4.115 135.319,4.115 135.319,42.739 134.848,42.739 		"/>
		<polyline clip-path="url(#SVGID_2_)" fill="#12D0B2" points="135.201,4.115 135.674,4.115 135.674,42.739 135.201,42.739 		"/>
		<polyline clip-path="url(#SVGID_2_)" fill="#12D0B2" points="135.556,4.115 136.027,4.115 136.027,42.739 135.556,42.739 		"/>
		<polyline clip-path="url(#SVGID_2_)" fill="#12D0B2" points="135.909,4.115 136.382,4.115 136.382,42.739 135.909,42.739 		"/>
		<polyline clip-path="url(#SVGID_2_)" fill="#12D1B1" points="136.264,4.115 136.735,4.115 136.735,42.739 136.264,42.739 		"/>
		<polyline clip-path="url(#SVGID_2_)" fill="#12D1B1" points="136.617,4.115 137.09,4.115 137.09,42.739 136.617,42.739 		"/>
		<polyline clip-path="url(#SVGID_2_)" fill="#12D1B1" points="136.972,4.115 137.443,4.115 137.443,42.739 136.972,42.739 		"/>
		<polyline clip-path="url(#SVGID_2_)" fill="#12D1B1" points="137.325,4.115 137.798,4.115 137.798,42.739 137.325,42.739 		"/>
		<polyline clip-path="url(#SVGID_2_)" fill="#12D1B1" points="137.684,4.115 138.155,4.115 138.155,42.739 137.684,42.739 		"/>
		<polyline clip-path="url(#SVGID_2_)" fill="#12D1B1" points="138.037,4.115 138.51,4.115 138.51,42.739 138.037,42.739 		"/>
		<polyline clip-path="url(#SVGID_2_)" fill="#12D2B1" points="138.392,4.115 138.863,4.115 138.863,42.739 138.392,42.739 		"/>
		<polyline clip-path="url(#SVGID_2_)" fill="#12D2B1" points="138.746,4.115 139.218,4.115 139.218,42.739 138.746,42.739 		"/>
		<polyline clip-path="url(#SVGID_2_)" fill="#12D2B0" points="139.1,4.115 139.571,4.115 139.571,42.739 139.1,42.739 		"/>
		<polyline clip-path="url(#SVGID_2_)" fill="#12D2B0" points="139.454,4.115 139.926,4.115 139.926,42.739 139.454,42.739 		"/>
		<polyline clip-path="url(#SVGID_2_)" fill="#12D2B0" points="139.808,4.115 140.397,4.115 140.397,42.739 139.808,42.739 		"/>
		<polyline clip-path="url(#SVGID_2_)" fill="#12D2B0" points="140.162,4.115 140.752,4.115 140.752,42.739 140.162,42.739 		"/>
		<polyline clip-path="url(#SVGID_2_)" fill="#12D3B0" points="140.516,4.115 141.105,4.115 141.105,42.739 140.516,42.739 		"/>
		<polyline clip-path="url(#SVGID_2_)" fill="#12D3B0" points="140.87,4.115 141.46,4.115 141.46,42.739 140.87,42.739 		"/>
		<polyline clip-path="url(#SVGID_2_)" fill="#12D3B0" points="141.224,4.115 141.813,4.115 141.813,42.739 141.224,42.739 		"/>
		<polyline clip-path="url(#SVGID_2_)" fill="#12D3B0" points="141.578,4.115 142.168,4.115 142.168,42.739 141.578,42.739 		"/>
		<polyline clip-path="url(#SVGID_2_)" fill="#12D3AF" points="141.932,4.115 142.525,4.115 142.525,42.739 141.932,42.739 		"/>
		<polyline clip-path="url(#SVGID_2_)" fill="#12D4AF" points="142.29,4.115 142.88,4.115 142.88,42.739 142.29,42.739 		"/>
		<polyline clip-path="url(#SVGID_2_)" fill="#12D4AF" points="142.644,4.115 143.233,4.115 143.233,42.739 142.644,42.739 		"/>
		<polyline clip-path="url(#SVGID_2_)" fill="#12D4AF" points="142.998,4.115 143.588,4.115 143.588,42.739 142.998,42.739 		"/>
		<polyline clip-path="url(#SVGID_2_)" fill="#12D4AF" points="143.352,4.115 143.941,4.115 143.941,42.739 143.352,42.739 		"/>
		<polyline clip-path="url(#SVGID_2_)" fill="#12D4AF" points="143.706,4.115 144.296,4.115 144.296,42.739 143.706,42.739 		"/>
		<polyline clip-path="url(#SVGID_2_)" fill="#12D4AF" points="144.06,4.115 144.65,4.115 144.65,42.739 144.06,42.739 		"/>
		<polyline clip-path="url(#SVGID_2_)" fill="#12D5AF" points="144.414,4.115 145.004,4.115 145.004,42.739 144.414,42.739 		"/>
		<polyline clip-path="url(#SVGID_2_)" fill="#12D5AE" points="144.768,4.115 145.358,4.115 145.358,42.739 144.768,42.739 		"/>
		<polyline clip-path="url(#SVGID_2_)" fill="#12D5AE" points="145.122,4.115 145.712,4.115 145.712,42.739 145.122,42.739 		"/>
		<polyline clip-path="url(#SVGID_2_)" fill="#12D5AE" points="145.476,4.115 146.066,4.115 146.066,42.739 145.476,42.739 		"/>
		<polyline clip-path="url(#SVGID_2_)" fill="#12D5AE" points="145.83,4.115 146.424,4.115 146.424,42.739 145.83,42.739 		"/>
		<polyline clip-path="url(#SVGID_2_)" fill="#12D5AE" points="146.302,4.115 146.778,4.115 146.778,42.739 146.302,42.739 		"/>
		<polyline clip-path="url(#SVGID_2_)" fill="#12D6AE" points="146.66,4.115 147.132,4.115 147.132,42.739 146.66,42.739 		"/>
		<polyline clip-path="url(#SVGID_2_)" fill="#12D6AE" points="147.014,4.115 147.486,4.115 147.486,42.739 147.014,42.739 		"/>
		<polyline clip-path="url(#SVGID_2_)" fill="#12D6AE" points="147.368,4.115 147.84,4.115 147.84,42.739 147.368,42.739 		"/>
		<polyline clip-path="url(#SVGID_2_)" fill="#12D6AD" points="147.722,4.115 148.194,4.115 148.194,42.739 147.722,42.739 		"/>
		<polyline clip-path="url(#SVGID_2_)" fill="#12D6AD" points="148.076,4.115 148.548,4.115 148.548,42.739 148.076,42.739 		"/>
		<polyline clip-path="url(#SVGID_2_)" fill="#12D6AD" points="148.43,4.115 148.902,4.115 148.902,42.739 148.43,42.739 		"/>
		<polyline clip-path="url(#SVGID_2_)" fill="#12D7AD" points="148.784,4.115 149.256,4.115 149.256,42.739 148.784,42.739 		"/>
		<polyline clip-path="url(#SVGID_2_)" fill="#12D7AD" points="149.138,4.115 149.61,4.115 149.61,42.739 149.138,42.739 		"/>
		<polyline clip-path="url(#SVGID_2_)" fill="#12D7AD" points="149.492,4.115 149.964,4.115 149.964,42.739 149.492,42.739 		"/>
		<polyline clip-path="url(#SVGID_2_)" fill="#12D7AD" points="149.846,4.115 150.318,4.115 150.318,42.739 149.846,42.739 		"/>
		<polyline clip-path="url(#SVGID_2_)" fill="#12D7AD" points="150.2,4.115 150.672,4.115 150.672,42.739 150.2,42.739 		"/>
		<polyline clip-path="url(#SVGID_2_)" fill="#12D7AC" points="150.554,4.115 151.03,4.115 151.03,42.739 150.554,42.739 		"/>
		<polyline clip-path="url(#SVGID_2_)" fill="#12D8AC" points="150.908,4.115 151.385,4.115 151.385,42.739 150.908,42.739 		"/>
		<polyline clip-path="url(#SVGID_2_)" fill="#12D8AC" points="151.267,4.115 151.738,4.115 151.738,42.739 151.267,42.739 		"/>
		<polyline clip-path="url(#SVGID_2_)" fill="#12D8AC" points="151.62,4.115 152.21,4.115 152.21,42.739 151.62,42.739 		"/>
		<polyline clip-path="url(#SVGID_2_)" fill="#12D8AC" points="151.975,4.115 152.564,4.115 152.564,42.739 151.975,42.739 		"/>
		<polyline clip-path="url(#SVGID_2_)" fill="#12D8AC" points="152.328,4.115 152.918,4.115 152.918,42.739 152.328,42.739 		"/>
		<polyline clip-path="url(#SVGID_2_)" fill="#12D9AC" points="152.683,4.115 153.272,4.115 153.272,42.739 152.683,42.739 		"/>
		<polyline clip-path="url(#SVGID_2_)" fill="#12D9AC" points="153.036,4.115 153.626,4.115 153.626,42.739 153.036,42.739 		"/>
		<polyline clip-path="url(#SVGID_2_)" fill="#12D9AB" points="153.391,4.115 153.98,4.115 153.98,42.739 153.391,42.739 		"/>
		<polyline clip-path="url(#SVGID_2_)" fill="#12D9AB" points="153.744,4.115 154.334,4.115 154.334,42.739 153.744,42.739 		"/>
		<polyline clip-path="url(#SVGID_2_)" fill="#12D9AB" points="154.099,4.115 154.688,4.115 154.688,42.739 154.099,42.739 		"/>
		<polyline clip-path="url(#SVGID_2_)" fill="#12D9AB" points="154.452,4.115 155.042,4.115 155.042,42.739 154.452,42.739 		"/>
		<polyline clip-path="url(#SVGID_2_)" fill="#12DAAB" points="154.807,4.115 155.4,4.115 155.4,42.739 154.807,42.739 		"/>
		<polyline clip-path="url(#SVGID_2_)" fill="#12DAAB" points="155.16,4.115 155.755,4.115 155.755,42.739 155.16,42.739 		"/>
		<polyline clip-path="url(#SVGID_2_)" fill="#12DAAB" points="155.515,4.115 156.108,4.115 156.108,42.739 155.515,42.739 		"/>
		<polyline clip-path="url(#SVGID_2_)" fill="#12DAAB" points="155.872,4.115 156.463,4.115 156.463,42.739 155.872,42.739 		"/>
		<polyline clip-path="url(#SVGID_2_)" fill="#12DAAA" points="156.227,4.115 156.816,4.115 156.816,42.739 156.227,42.739 		"/>
		<polyline clip-path="url(#SVGID_2_)" fill="#12DAAA" points="156.58,4.115 157.171,4.115 157.171,42.739 156.58,42.739 		"/>
		<polyline clip-path="url(#SVGID_2_)" fill="#12DBAA" points="156.935,4.115 157.524,4.115 157.524,42.739 156.935,42.739 		"/>
		<polyline clip-path="url(#SVGID_2_)" fill="#12DBAA" points="157.289,4.115 157.879,4.115 157.879,42.739 157.289,42.739 		"/>
		<polyline clip-path="url(#SVGID_2_)" fill="#12DBAA" points="157.643,4.115 158.232,4.115 158.232,42.739 157.643,42.739 		"/>
		<polyline clip-path="url(#SVGID_2_)" fill="#12DBAA" points="158.114,4.115 158.587,4.115 158.587,42.739 158.114,42.739 		"/>
		<polyline clip-path="url(#SVGID_2_)" fill="#12DBAA" points="158.469,4.115 158.94,4.115 158.94,42.739 158.469,42.739 		"/>
		<polyline clip-path="url(#SVGID_2_)" fill="#12DBAA" points="158.822,4.115 159.295,4.115 159.295,42.739 158.822,42.739 		"/>
		<polyline clip-path="url(#SVGID_2_)" fill="#12DCA9" points="159.177,4.115 159.648,4.115 159.648,42.739 159.177,42.739 		"/>
		<polyline clip-path="url(#SVGID_2_)" fill="#12DCA9" points="159.53,4.115 160.007,4.115 160.007,42.739 159.53,42.739 		"/>
		<polyline clip-path="url(#SVGID_2_)" fill="#12DCA9" points="159.885,4.115 160.36,4.115 160.36,42.739 159.885,42.739 		"/>
		<polyline clip-path="url(#SVGID_2_)" fill="#12DCA9" points="160.243,4.115 160.715,4.115 160.715,42.739 160.243,42.739 		"/>
		<polyline clip-path="url(#SVGID_2_)" fill="#12DCA9" points="160.597,4.115 161.068,4.115 161.068,42.739 160.597,42.739 		"/>
		<polyline clip-path="url(#SVGID_2_)" fill="#12DCA9" points="160.951,4.115 161.423,4.115 161.423,42.739 160.951,42.739 		"/>
		<polyline clip-path="url(#SVGID_2_)" fill="#12DDA9" points="161.305,4.115 161.776,4.115 161.776,42.739 161.305,42.739 		"/>
		<polyline clip-path="url(#SVGID_2_)" fill="#12DDA9" points="161.659,4.115 162.131,4.115 162.131,42.739 161.659,42.739 		"/>
		<polyline clip-path="url(#SVGID_2_)" fill="#12DDA8" points="162.013,4.115 162.484,4.115 162.484,42.739 162.013,42.739 		"/>
		<polyline clip-path="url(#SVGID_2_)" fill="#12DDA8" points="162.367,4.115 162.839,4.115 162.839,42.739 162.367,42.739 		"/>
		<polyline clip-path="url(#SVGID_2_)" fill="#12DDA8" points="162.721,4.115 163.192,4.115 163.192,42.739 162.721,42.739 		"/>
		<polyline clip-path="url(#SVGID_2_)" fill="#12DEA8" points="163.075,4.115 163.665,4.115 163.665,42.739 163.075,42.739 		"/>
		<polyline clip-path="url(#SVGID_2_)" fill="#12DEA8" points="163.429,4.115 164.019,4.115 164.019,42.739 163.429,42.739 		"/>
		<polyline clip-path="url(#SVGID_2_)" fill="#12DEA8" points="163.783,4.115 164.377,4.115 164.377,42.739 163.783,42.739 		"/>
		<polyline clip-path="url(#SVGID_2_)" fill="#12DEA8" points="164.141,4.115 164.731,4.115 164.731,42.739 164.141,42.739 		"/>
		<polyline clip-path="url(#SVGID_2_)" fill="#12DEA8" points="164.495,4.115 165.085,4.115 165.085,42.739 164.495,42.739 		"/>
		<polyline clip-path="url(#SVGID_2_)" fill="#12DEA7" points="164.849,4.115 165.439,4.115 165.439,42.739 164.849,42.739 		"/>
		<polyline clip-path="url(#SVGID_2_)" fill="#12DFA7" points="165.203,4.115 165.793,4.115 165.793,42.739 165.203,42.739 		"/>
		<polyline clip-path="url(#SVGID_2_)" fill="#12DFA7" points="165.557,4.115 166.147,4.115 166.147,42.739 165.557,42.739 		"/>
		<polyline clip-path="url(#SVGID_2_)" fill="#12DFA7" points="165.911,4.115 166.501,4.115 166.501,42.739 165.911,42.739 		"/>
		<polyline clip-path="url(#SVGID_2_)" fill="#13DFA7" points="166.265,4.115 166.855,4.115 166.855,42.739 166.265,42.739 		"/>
		<polyline clip-path="url(#SVGID_2_)" fill="#13DFA7" points="166.619,4.115 167.209,4.115 167.209,42.739 166.619,42.739 		"/>
		<polyline clip-path="url(#SVGID_2_)" fill="#13DFA7" points="166.973,4.115 167.563,4.115 167.563,42.739 166.973,42.739 		"/>
		<polyline clip-path="url(#SVGID_2_)" fill="#13E0A7" points="167.327,4.115 167.917,4.115 167.917,42.739 167.327,42.739 		"/>
		<polyline clip-path="url(#SVGID_2_)" fill="#13E0A6" points="167.681,4.115 168.271,4.115 168.271,42.739 167.681,42.739 		"/>
		<polyline clip-path="url(#SVGID_2_)" fill="#13E0A6" points="168.035,4.115 168.625,4.115 168.625,42.739 168.035,42.739 		"/>
		<polyline clip-path="url(#SVGID_2_)" fill="#13E0A6" points="168.389,4.115 168.983,4.115 168.983,42.739 168.389,42.739 		"/>
		<polyline clip-path="url(#SVGID_2_)" fill="#13E0A6" points="168.747,4.115 169.337,4.115 169.337,42.739 168.747,42.739 		"/>
		<polyline clip-path="url(#SVGID_2_)" fill="#13E0A6" points="169.102,4.115 169.691,4.115 169.691,42.739 169.102,42.739 		"/>
		<polyline clip-path="url(#SVGID_2_)" fill="#13E1A6" points="169.573,4.115 170.045,4.115 170.045,42.739 169.573,42.739 		"/>
		<polyline clip-path="url(#SVGID_2_)" fill="#13E1A6" points="169.928,4.115 170.399,4.115 170.399,42.739 169.928,42.739 		"/>
		<polyline clip-path="url(#SVGID_2_)" fill="#13E1A6" points="170.281,4.115 170.753,4.115 170.753,42.739 170.281,42.739 		"/>
		<polyline clip-path="url(#SVGID_2_)" fill="#13E1A5" points="170.636,4.115 171.107,4.115 171.107,42.739 170.636,42.739 		"/>
		<polyline clip-path="url(#SVGID_2_)" fill="#13E1A5" points="170.989,4.115 171.461,4.115 171.461,42.739 170.989,42.739 		"/>
		<polyline clip-path="url(#SVGID_2_)" fill="#13E2A5" points="171.344,4.115 171.815,4.115 171.815,42.739 171.344,42.739 		"/>
		<polyline clip-path="url(#SVGID_2_)" fill="#13E2A5" points="171.697,4.115 172.169,4.115 172.169,42.739 171.697,42.739 		"/>
		<polyline clip-path="url(#SVGID_2_)" fill="#13E2A5" points="172.052,4.115 172.523,4.115 172.523,42.739 172.052,42.739 		"/>
		<polyline clip-path="url(#SVGID_2_)" fill="#13E2A5" points="172.405,4.115 172.877,4.115 172.877,42.739 172.405,42.739 		"/>
		<polyline clip-path="url(#SVGID_2_)" fill="#13E2A5" points="172.76,4.115 173.235,4.115 173.235,42.739 172.76,42.739 		"/>
		<polyline clip-path="url(#SVGID_2_)" fill="#13E2A5" points="173.117,4.115 173.59,4.115 173.59,42.739 173.117,42.739 		"/>
		<polyline clip-path="url(#SVGID_2_)" fill="#13E3A4" points="173.472,4.115 173.943,4.115 173.943,42.739 173.472,42.739 		"/>
		<polyline clip-path="url(#SVGID_2_)" fill="#13E3A4" points="173.825,4.115 174.298,4.115 174.298,42.739 173.825,42.739 		"/>
		<polyline clip-path="url(#SVGID_2_)" fill="#13E3A4" points="174.18,4.115 174.651,4.115 174.651,42.739 174.18,42.739 		"/>
		<polyline clip-path="url(#SVGID_2_)" fill="#13E3A4" points="174.533,4.115 175.006,4.115 175.006,42.739 174.533,42.739 		"/>
		<polyline clip-path="url(#SVGID_2_)" fill="#13E3A4" points="174.888,4.115 175.478,4.115 175.478,42.739 174.888,42.739 		"/>
		<polyline clip-path="url(#SVGID_2_)" fill="#13E3A4" points="175.241,4.115 175.831,4.115 175.831,42.739 175.241,42.739 		"/>
		<polyline clip-path="url(#SVGID_2_)" fill="#13E4A4" points="175.596,4.115 176.186,4.115 176.186,42.739 175.596,42.739 		"/>
		<polyline clip-path="url(#SVGID_2_)" fill="#13E4A4" points="175.949,4.115 176.54,4.115 176.54,42.739 175.949,42.739 		"/>
		<polyline clip-path="url(#SVGID_2_)" fill="#13E4A3" points="176.304,4.115 176.894,4.115 176.894,42.739 176.304,42.739 		"/>
		<polyline clip-path="url(#SVGID_2_)" fill="#13E4A3" points="176.657,4.115 177.248,4.115 177.248,42.739 176.657,42.739 		"/>
		<polyline clip-path="url(#SVGID_2_)" fill="#13E4A3" points="177.012,4.115 177.605,4.115 177.605,42.739 177.012,42.739 		"/>
		<polyline clip-path="url(#SVGID_2_)" fill="#13E4A3" points="177.365,4.115 177.96,4.115 177.96,42.739 177.365,42.739 		"/>
		<polyline clip-path="url(#SVGID_2_)" fill="#13E5A3" points="177.724,4.115 178.313,4.115 178.313,42.739 177.724,42.739 		"/>
		<polyline clip-path="url(#SVGID_2_)" fill="#13E5A3" points="178.078,4.115 178.668,4.115 178.668,42.739 178.078,42.739 		"/>
		<polyline clip-path="url(#SVGID_2_)" fill="#13E5A3" points="178.432,4.115 179.021,4.115 179.021,42.739 178.432,42.739 		"/>
		<polyline clip-path="url(#SVGID_2_)" fill="#13E5A3" points="178.786,4.115 179.376,4.115 179.376,42.739 178.786,42.739 		"/>
		<polyline clip-path="url(#SVGID_2_)" fill="#13E5A2" points="179.14,4.115 179.729,4.115 179.729,42.739 179.14,42.739 		"/>
		<polyline clip-path="url(#SVGID_2_)" fill="#13E5A2" points="179.494,4.115 180.084,4.115 180.084,42.739 179.494,42.739 		"/>
		<polyline clip-path="url(#SVGID_2_)" fill="#13E6A2" points="179.848,4.115 180.438,4.115 180.438,42.739 179.848,42.739 		"/>
		<polyline clip-path="url(#SVGID_2_)" fill="#13E6A2" points="180.202,4.115 180.792,4.115 180.792,42.739 180.202,42.739 		"/>
		<polyline clip-path="url(#SVGID_2_)" fill="#13E6A2" points="180.556,4.115 181.146,4.115 181.146,42.739 180.556,42.739 		"/>
		<polyline clip-path="url(#SVGID_2_)" fill="#13E6A2" points="180.91,4.115 181.5,4.115 181.5,42.739 180.91,42.739 		"/>
		<polyline clip-path="url(#SVGID_2_)" fill="#13E6A2" points="181.382,4.115 181.857,4.115 181.857,42.739 181.382,42.739 		"/>
		<polyline clip-path="url(#SVGID_2_)" fill="#13E7A2" points="181.735,4.115 182.212,4.115 182.212,42.739 181.735,42.739 		"/>
		<polyline clip-path="url(#SVGID_2_)" fill="#13E7A1" points="182.094,4.115 182.566,4.115 182.566,42.739 182.094,42.739 		"/>
		<polyline clip-path="url(#SVGID_2_)" fill="#13E7A1" points="182.448,4.115 182.92,4.115 182.92,42.739 182.448,42.739 		"/>
		<polyline clip-path="url(#SVGID_2_)" fill="#13E7A1" points="182.802,4.115 183.274,4.115 183.274,42.739 182.802,42.739 		"/>
		<polyline clip-path="url(#SVGID_2_)" fill="#13E7A1" points="183.156,4.115 183.628,4.115 183.628,42.739 183.156,42.739 		"/>
		<polyline clip-path="url(#SVGID_2_)" fill="#13E7A1" points="183.51,4.115 183.982,4.115 183.982,42.739 183.51,42.739 		"/>
		<polyline clip-path="url(#SVGID_2_)" fill="#13E8A1" points="183.864,4.115 184.336,4.115 184.336,42.739 183.864,42.739 		"/>
		<polyline clip-path="url(#SVGID_2_)" fill="#13E8A1" points="184.218,4.115 184.69,4.115 184.69,42.739 184.218,42.739 		"/>
		<polyline clip-path="url(#SVGID_2_)" fill="#13E8A1" points="184.572,4.115 185.044,4.115 185.044,42.739 184.572,42.739 		"/>
		<polyline clip-path="url(#SVGID_2_)" fill="#13E8A0" points="184.926,4.115 185.398,4.115 185.398,42.739 184.926,42.739 		"/>
		<polyline clip-path="url(#SVGID_2_)" fill="#13E8A0" points="185.28,4.115 185.752,4.115 185.752,42.739 185.28,42.739 		"/>
		<polyline clip-path="url(#SVGID_2_)" fill="#13E8A0" points="185.634,4.115 186.106,4.115 186.106,42.739 185.634,42.739 		"/>
		<polyline clip-path="url(#SVGID_2_)" fill="#13E9A0" points="185.988,4.115 186.464,4.115 186.464,42.739 185.988,42.739 		"/>
		<polyline clip-path="url(#SVGID_2_)" fill="#13E9A0" points="186.342,4.115 186.818,4.115 186.818,42.739 186.342,42.739 		"/>
		<polyline clip-path="url(#SVGID_2_)" fill="#13E9A0" points="186.7,4.115 187.29,4.115 187.29,42.739 186.7,42.739 		"/>
		<polyline clip-path="url(#SVGID_2_)" fill="#13E9A0" points="187.054,4.115 187.645,4.115 187.645,42.739 187.054,42.739 		"/>
		<polyline clip-path="url(#SVGID_2_)" fill="#13E9A0" points="187.408,4.115 187.998,4.115 187.998,42.739 187.408,42.739 		"/>
		<polyline clip-path="url(#SVGID_2_)" fill="#13E99F" points="187.762,4.115 188.353,4.115 188.353,42.739 187.762,42.739 		"/>
		<polyline clip-path="url(#SVGID_2_)" fill="#13EA9F" points="188.116,4.115 188.706,4.115 188.706,42.739 188.116,42.739 		"/>
		<polyline clip-path="url(#SVGID_2_)" fill="#13EA9F" points="188.471,4.115 189.061,4.115 189.061,42.739 188.471,42.739 		"/>
		<polyline clip-path="url(#SVGID_2_)" fill="#13EA9F" points="188.824,4.115 189.414,4.115 189.414,42.739 188.824,42.739 		"/>
		<polyline clip-path="url(#SVGID_2_)" fill="#13EA9F" points="189.179,4.115 189.769,4.115 189.769,42.739 189.179,42.739 		"/>
		<polyline clip-path="url(#SVGID_2_)" fill="#13EA9F" points="189.532,4.115 190.122,4.115 190.122,42.739 189.532,42.739 		"/>
		<polyline clip-path="url(#SVGID_2_)" fill="#13EA9F" points="189.887,4.115 190.477,4.115 190.477,42.739 189.887,42.739 		"/>
		<polyline clip-path="url(#SVGID_2_)" fill="#13EB9F" points="190.24,4.115 190.834,4.115 190.834,42.739 190.24,42.739 		"/>
		<polyline clip-path="url(#SVGID_2_)" fill="#13EB9E" points="190.599,4.115 191.188,4.115 191.188,42.739 190.599,42.739 		"/>
		<polyline clip-path="url(#SVGID_2_)" fill="#13EB9E" points="190.952,4.115 191.542,4.115 191.542,42.739 190.952,42.739 		"/>
		<polyline clip-path="url(#SVGID_2_)" fill="#13EB9E" points="191.307,4.115 191.896,4.115 191.896,42.739 191.307,42.739 		"/>
		<polyline clip-path="url(#SVGID_2_)" fill="#13EB9E" points="191.66,4.115 192.25,4.115 192.25,42.739 191.66,42.739 		"/>
		<polyline clip-path="url(#SVGID_2_)" fill="#13EC9E" points="192.015,4.115 192.604,4.115 192.604,42.739 192.015,42.739 		"/>
		<polyline clip-path="url(#SVGID_2_)" fill="#13EC9E" points="192.368,4.115 192.958,4.115 192.958,42.739 192.368,42.739 		"/>
		<polyline clip-path="url(#SVGID_2_)" fill="#13EC9E" points="192.723,4.115 193.313,4.115 193.313,42.739 192.723,42.739 		"/>
		<polyline clip-path="url(#SVGID_2_)" fill="#13EC9E" points="193.194,4.115 193.666,4.115 193.666,42.739 193.194,42.739 		"/>
		<polyline clip-path="url(#SVGID_2_)" fill="#13EC9D" points="193.549,4.115 194.021,4.115 194.021,42.739 193.549,42.739 		"/>
		<polyline clip-path="url(#SVGID_2_)" fill="#13EC9D" points="193.902,4.115 194.374,4.115 194.374,42.739 193.902,42.739 		"/>
		<polyline clip-path="url(#SVGID_2_)" fill="#13ED9D" points="194.257,4.115 194.729,4.115 194.729,42.739 194.257,42.739 		"/>
		<polyline clip-path="url(#SVGID_2_)" fill="#13ED9D" points="194.61,4.115 195.083,4.115 195.083,42.739 194.61,42.739 		"/>
		<polyline clip-path="url(#SVGID_2_)" fill="#13ED9D" points="194.969,4.115 195.44,4.115 195.44,42.739 194.969,42.739 		"/>
		<polyline clip-path="url(#SVGID_2_)" fill="#13ED9D" points="195.322,4.115 195.795,4.115 195.795,42.739 195.322,42.739 		"/>
		<polyline clip-path="url(#SVGID_2_)" fill="#13ED9D" points="195.677,4.115 196.148,4.115 196.148,42.739 195.677,42.739 		"/>
		<polyline clip-path="url(#SVGID_2_)" fill="#13ED9D" points="196.03,4.115 196.503,4.115 196.503,42.739 196.03,42.739 		"/>
		<polyline clip-path="url(#SVGID_2_)" fill="#13EE9C" points="196.385,4.115 196.856,4.115 196.856,42.739 196.385,42.739 		"/>
		<polyline clip-path="url(#SVGID_2_)" fill="#13EE9C" points="196.738,4.115 197.211,4.115 197.211,42.739 196.738,42.739 		"/>
		<polyline clip-path="url(#SVGID_2_)" fill="#13EE9C" points="197.093,4.115 197.564,4.115 197.564,42.739 197.093,42.739 		"/>
		<polyline clip-path="url(#SVGID_2_)" fill="#13EE9C" points="197.446,4.115 197.919,4.115 197.919,42.739 197.446,42.739 		"/>
		<polyline clip-path="url(#SVGID_2_)" fill="#13EE9C" points="197.801,4.115 198.272,4.115 198.272,42.739 197.801,42.739 		"/>
		<polyline clip-path="url(#SVGID_2_)" fill="#13EE9C" points="198.154,4.115 198.745,4.115 198.745,42.739 198.154,42.739 		"/>
		<polyline clip-path="url(#SVGID_2_)" fill="#13EF9C" points="198.509,4.115 199.099,4.115 199.099,42.739 198.509,42.739 		"/>
		<polyline clip-path="url(#SVGID_2_)" fill="#13EF9C" points="198.862,4.115 199.453,4.115 199.453,42.739 198.862,42.739 		"/>
		<polyline clip-path="url(#SVGID_2_)" fill="#13EF9B" points="199.217,4.115 199.811,4.115 199.811,42.739 199.217,42.739 		"/>
		<polyline clip-path="url(#SVGID_2_)" fill="#13EF9B" points="199.575,4.115 200.165,4.115 200.165,42.739 199.575,42.739 		"/>
		<polyline clip-path="url(#SVGID_2_)" fill="#13EF9B" points="199.929,4.115 200.519,4.115 200.519,42.739 199.929,42.739 		"/>
		<polyline clip-path="url(#SVGID_2_)" fill="#13EF9B" points="200.283,4.115 200.873,4.115 200.873,42.739 200.283,42.739 		"/>
		<polyline clip-path="url(#SVGID_2_)" fill="#13F09B" points="200.637,4.115 201.227,4.115 201.227,42.739 200.637,42.739 		"/>
		<polyline clip-path="url(#SVGID_2_)" fill="#13F09B" points="200.991,4.115 201.581,4.115 201.581,42.739 200.991,42.739 		"/>
		<polyline clip-path="url(#SVGID_2_)" fill="#13F09B" points="201.345,4.115 201.935,4.115 201.935,42.739 201.345,42.739 		"/>
		<polyline clip-path="url(#SVGID_2_)" fill="#13F09B" points="201.699,4.115 202.289,4.115 202.289,42.739 201.699,42.739 		"/>
		<polyline clip-path="url(#SVGID_2_)" fill="#13F09A" points="202.053,4.115 202.643,4.115 202.643,42.739 202.053,42.739 		"/>
		<polyline clip-path="url(#SVGID_2_)" fill="#13F19A" points="202.407,4.115 202.997,4.115 202.997,42.739 202.407,42.739 		"/>
		<polyline clip-path="url(#SVGID_2_)" fill="#13F19A" points="202.761,4.115 203.351,4.115 203.351,42.739 202.761,42.739 		"/>
		<polyline clip-path="url(#SVGID_2_)" fill="#13F19A" points="203.115,4.115 203.705,4.115 203.705,42.739 203.115,42.739 		"/>
		<polyline clip-path="url(#SVGID_2_)" fill="#13F19A" points="203.469,4.115 204.063,4.115 204.063,42.739 203.469,42.739 		"/>
		<polyline clip-path="url(#SVGID_2_)" fill="#13F19A" points="203.823,4.115 204.417,4.115 204.417,42.739 203.823,42.739 		"/>
		<polyline clip-path="url(#SVGID_2_)" fill="#13F19A" points="204.181,4.115 204.771,4.115 204.771,42.739 204.181,42.739 		"/>
		<polyline clip-path="url(#SVGID_2_)" fill="#13F29A" points="204.653,4.115 205.125,4.115 205.125,42.739 204.653,42.739 		"/>
		<polyline clip-path="url(#SVGID_2_)" fill="#13F299" points="205.007,4.115 205.479,4.115 205.479,42.739 205.007,42.739 		"/>
		<polyline clip-path="url(#SVGID_2_)" fill="#13F299" points="205.361,4.115 205.833,4.115 205.833,42.739 205.361,42.739 		"/>
		<polyline clip-path="url(#SVGID_2_)" fill="#13F299" points="205.715,4.115 206.188,4.115 206.188,42.739 205.715,42.739 		"/>
		<polyline clip-path="url(#SVGID_2_)" fill="#13F299" points="206.069,4.115 206.541,4.115 206.541,42.739 206.069,42.739 		"/>
		<polyline clip-path="url(#SVGID_2_)" fill="#13F299" points="206.423,4.115 206.896,4.115 206.896,42.739 206.423,42.739 		"/>
		<polyline clip-path="url(#SVGID_2_)" fill="#13F399" points="206.777,4.115 207.249,4.115 207.249,42.739 206.777,42.739 		"/>
		<polyline clip-path="url(#SVGID_2_)" fill="#13F399" points="207.131,4.115 207.604,4.115 207.604,42.739 207.131,42.739 		"/>
		<polyline clip-path="url(#SVGID_2_)" fill="#13F399" points="207.485,4.115 207.957,4.115 207.957,42.739 207.485,42.739 		"/>
		<polyline clip-path="url(#SVGID_2_)" fill="#13F398" points="207.839,4.115 208.315,4.115 208.315,42.739 207.839,42.739 		"/>
		<polyline clip-path="url(#SVGID_2_)" fill="#13F398" points="208.193,4.115 208.669,4.115 208.669,42.739 208.193,42.739 		"/>
		<polyline clip-path="url(#SVGID_2_)" fill="#13F398" points="208.552,4.115 209.023,4.115 209.023,42.739 208.552,42.739 		"/>
		<polyline clip-path="url(#SVGID_2_)" fill="#13F498" points="208.905,4.115 209.377,4.115 209.377,42.739 208.905,42.739 		"/>
		<polyline clip-path="url(#SVGID_2_)" fill="#13F498" points="209.26,4.115 209.731,4.115 209.731,42.739 209.26,42.739 		"/>
		<polyline clip-path="url(#SVGID_2_)" fill="#13F498" points="209.613,4.115 210.085,4.115 210.085,42.739 209.613,42.739 		"/>
		<polyline clip-path="url(#SVGID_2_)" fill="#13F498" points="209.968,4.115 210.558,4.115 210.558,42.739 209.968,42.739 		"/>
		<polyline clip-path="url(#SVGID_2_)" fill="#13F498" points="210.321,4.115 210.911,4.115 210.911,42.739 210.321,42.739 		"/>
		<polyline clip-path="url(#SVGID_2_)" fill="#13F497" points="210.676,4.115 211.266,4.115 211.266,42.739 210.676,42.739 		"/>
		<polyline clip-path="url(#SVGID_2_)" fill="#13F597" points="211.029,4.115 211.619,4.115 211.619,42.739 211.029,42.739 		"/>
		<polyline clip-path="url(#SVGID_2_)" fill="#13F597" points="211.384,4.115 211.974,4.115 211.974,42.739 211.384,42.739 		"/>
		<polyline clip-path="url(#SVGID_2_)" fill="#13F597" points="211.737,4.115 212.445,4.115 212.445,42.739 211.737,42.739 		"/>
	</g>
	<g>
		<defs>
			<path id="SVGID_3_" d="M8.113,0.334c0.354-0.236,0.708-0.118,1.418,0.118c1.418,0.472,2.834,0.826,4.134,1.302
				c1.89,0.472,3.306,1.652,4.252,3.304c1.534,2.836,3.07,5.672,4.488,8.387c0.944,1.774,2.834,2.364,5.196,2.364
				c6.969-0.118,13.819-0.354,20.787-0.472c2.601,0,4.608,0.59,5.435,1.77c0.59,0.826,0.118,1.534-1.654,2.01
				c-6.968,2.124-15.827,4.606-20.551,6.258c-1.654,0.59-2.362,2.6-1.418,4.606c2.244,4.725,5.316,10.87,7.561,15.593
				c0.826,1.416,2.598,2.242,4.724,2.36c2.48,0.354,5.079,0.59,7.559,0.948c1.772,0.236,2.244,1.888,0.118,2.478
				c-2.48,0.826-4.842,1.652-7.323,2.601c-0.944,0.354-1.062,1.18-0.708,2.479c0.354,1.062,0.826,2.481,0.354,2.836l0,0l0,0
				c-0.472,0.235-1.536-0.944-2.244-1.656c-1.064-1.063-1.772-1.298-2.48-0.708c-2.008,1.774-4.016,3.426-5.906,5.196
				c-1.654,1.538-2.834,0.236-2.126-1.416c0.944-2.36,2.008-4.725,2.952-6.967c0.828-1.892,1.064-3.897,0.238-5.318
				c-2.954-4.252-6.852-10.038-9.804-14.29c-1.3-1.771-3.424-2.125-4.725-1.063c-3.78,3.309-10.395,9.803-15.591,14.881
				c-1.3,1.302-2.126,1.302-2.598,0.354c-0.474-1.299-0.118-3.305,1.18-5.551c3.544-6.022,7.086-11.931,10.63-17.835
				c1.18-2.128,1.654-4.016,0.472-5.668c-1.652-2.6-3.306-5.318-5.078-8.032C6.461,9.547,6.223,7.659,6.579,5.889
				c0.354-1.42,0.708-2.836,0.944-4.252C7.641,0.924,7.877,0.453,8.113,0.334L8.113,0.334z"/>
		</defs>
		<clipPath id="SVGID_4_">
			<use xlink:href="#SVGID_3_"  overflow="visible"/>
		</clipPath>
		<polyline clip-path="url(#SVGID_4_)" fill="#12C9B7" points="-18.817,16.045 -18.581,15.927 15.791,74.865 15.555,74.983 		"/>
		<polyline clip-path="url(#SVGID_4_)" fill="#12C9B7" points="-18.699,15.927 -18.345,15.81 16.027,74.747 15.673,74.865 		"/>
		<polyline clip-path="url(#SVGID_4_)" fill="#12C9B7" points="-18.462,15.81 -18.108,15.691 16.263,74.629 15.909,74.747 		"/>
		<polyline clip-path="url(#SVGID_4_)" fill="#12CAB7" points="-18.227,15.691 -17.991,15.573 16.381,74.511 16.145,74.629 		"/>
		<polyline clip-path="url(#SVGID_4_)" fill="#12CAB6" points="-18.108,15.573 -17.754,15.456 16.617,74.393 16.263,74.511 		"/>
		<polyline clip-path="url(#SVGID_4_)" fill="#12CAB6" points="-17.873,15.456 -17.517,15.337 16.853,74.275 16.499,74.393 		"/>
		<polyline clip-path="url(#SVGID_4_)" fill="#12CAB6" points="-17.635,15.337 -17.281,15.219 17.089,74.157 16.735,74.275 		"/>
		<polyline clip-path="url(#SVGID_4_)" fill="#12CAB6" points="-17.398,15.219 -17.163,15.102 17.207,74.039 16.971,74.157 		"/>
		<polyline clip-path="url(#SVGID_4_)" fill="#12CAB6" points="-17.281,15.102 -16.927,14.865 17.443,73.921 17.089,74.039 		"/>
		<polyline clip-path="url(#SVGID_4_)" fill="#12CBB6" points="-17.044,14.983 -16.69,14.748 17.681,73.803 17.325,73.921 		"/>
		<polyline clip-path="url(#SVGID_4_)" fill="#12CBB6" points="-16.809,14.865 -16.455,14.625 17.917,73.567 17.561,73.803 		"/>
		<polyline clip-path="url(#SVGID_4_)" fill="#12CBB6" points="-16.573,14.748 -16.336,14.507 18.035,73.449 17.799,73.685 		"/>
		<polyline clip-path="url(#SVGID_4_)" fill="#12CBB5" points="-16.336,14.625 -16.101,14.389 18.271,73.331 18.035,73.567 		"/>
		<polyline clip-path="url(#SVGID_4_)" fill="#12CBB5" points="-16.219,14.507 -15.865,14.271 18.507,73.213 18.153,73.449 		"/>
		<polyline clip-path="url(#SVGID_4_)" fill="#12CBB5" points="-15.982,14.389 -15.628,14.153 18.743,73.095 18.389,73.331 		"/>
		<polyline clip-path="url(#SVGID_4_)" fill="#12CCB5" points="-15.747,14.271 -15.391,14.035 18.979,72.977 18.625,73.213 		"/>
		<polyline clip-path="url(#SVGID_4_)" fill="#12CCB5" points="-15.508,14.153 -15.272,13.917 19.097,72.858 18.861,73.095 		"/>
		<polyline clip-path="url(#SVGID_4_)" fill="#12CCB5" points="-15.391,14.035 -15.037,13.799 19.333,72.741 18.979,72.977 		"/>
		<polyline clip-path="url(#SVGID_4_)" fill="#12CCB5" points="-15.154,13.917 -14.8,13.681 19.569,72.623 19.215,72.858 		"/>
		<polyline clip-path="url(#SVGID_4_)" fill="#12CCB5" points="-14.918,13.799 -14.564,13.563 19.808,72.505 19.451,72.741 		"/>
		<polyline clip-path="url(#SVGID_4_)" fill="#12CCB4" points="-14.683,13.681 -14.446,13.445 19.925,72.387 19.689,72.623 		"/>
		<polyline clip-path="url(#SVGID_4_)" fill="#12CDB4" points="-14.446,13.563 -14.21,13.327 20.162,72.269 19.925,72.505 		"/>
		<polyline clip-path="url(#SVGID_4_)" fill="#12CDB4" points="-14.329,13.445 -13.975,13.209 20.397,72.15 20.043,72.387 		"/>
		<polyline clip-path="url(#SVGID_4_)" fill="#12CDB4" points="-14.092,13.327 -13.738,13.091 20.633,72.033 20.279,72.269 		"/>
		<polyline clip-path="url(#SVGID_4_)" fill="#12CDB4" points="-13.856,13.091 -13.502,12.973 20.87,71.915 20.516,72.15 		"/>
		<polyline clip-path="url(#SVGID_4_)" fill="#12CDB4" points="-13.621,12.973 -13.384,12.855 20.987,71.797 20.751,72.033 		"/>
		<polyline clip-path="url(#SVGID_4_)" fill="#12CDB4" points="-13.502,12.855 -13.146,12.737 21.224,71.679 20.87,71.797 		"/>
		<polyline clip-path="url(#SVGID_4_)" fill="#12CEB4" points="-13.264,12.737 -12.91,12.619 21.459,71.561 21.105,71.679 		"/>
		<polyline clip-path="url(#SVGID_4_)" fill="#12CEB3" points="-13.028,12.619 -12.674,12.501 21.695,71.442 21.341,71.561 		"/>
		<polyline clip-path="url(#SVGID_4_)" fill="#12CEB3" points="-12.792,12.501 -12.556,12.383 21.813,71.325 21.578,71.442 		"/>
		<polyline clip-path="url(#SVGID_4_)" fill="#12CEB3" points="-12.556,12.383 -12.32,12.265 22.049,71.207 21.813,71.325 		"/>
		<polyline clip-path="url(#SVGID_4_)" fill="#12CEB3" points="-12.438,12.265 -12.084,12.147 22.288,71.085 21.932,71.207 		"/>
		<polyline clip-path="url(#SVGID_4_)" fill="#12CFB3" points="-12.202,12.147 -11.848,12.029 22.523,70.971 22.169,71.085 		"/>
		<polyline clip-path="url(#SVGID_4_)" fill="#12CFB3" points="-11.966,12.029 -11.612,11.911 22.76,70.849 22.406,70.971 		"/>
		<polyline clip-path="url(#SVGID_4_)" fill="#12CFB3" points="-11.73,11.911 -11.494,11.793 22.877,70.73 22.642,70.849 		"/>
		<polyline clip-path="url(#SVGID_4_)" fill="#12CFB3" points="-11.612,11.793 -11.258,11.675 23.114,70.612 22.76,70.73 		"/>
		<polyline clip-path="url(#SVGID_4_)" fill="#12CFB2" points="-11.376,11.675 -11.02,11.557 23.35,70.495 22.996,70.612 		"/>
		<polyline clip-path="url(#SVGID_4_)" fill="#12CFB2" points="-11.138,11.557 -10.784,11.321 23.585,70.377 23.231,70.495 		"/>
		<polyline clip-path="url(#SVGID_4_)" fill="#12D0B2" points="-10.902,11.439 -10.666,11.203 23.704,70.259 23.468,70.377 		"/>
		<polyline clip-path="url(#SVGID_4_)" fill="#12D0B2" points="-10.784,11.321 -10.43,11.085 23.939,70.022 23.585,70.259 		"/>
		<polyline clip-path="url(#SVGID_4_)" fill="#12D0B2" points="-10.548,11.203 -10.194,10.967 24.178,69.904 23.822,70.141 		"/>
		<polyline clip-path="url(#SVGID_4_)" fill="#12D0B2" points="-10.312,11.085 -9.958,10.849 24.414,69.787 24.06,70.022 		"/>
		<polyline clip-path="url(#SVGID_4_)" fill="#12D0B2" points="-10.076,10.967 -9.84,10.731 24.532,69.669 24.295,69.904 		"/>
		<polyline clip-path="url(#SVGID_4_)" fill="#12D0B2" points="-9.84,10.849 -9.604,10.613 24.768,69.551 24.532,69.787 		"/>
		<polyline clip-path="url(#SVGID_4_)" fill="#12D1B1" points="-9.722,10.731 -9.368,10.495 25.003,69.433 24.649,69.669 		"/>
		<polyline clip-path="url(#SVGID_4_)" fill="#12D1B1" points="-9.486,10.613 -9.132,10.377 25.24,69.314 24.886,69.551 		"/>
		<polyline clip-path="url(#SVGID_4_)" fill="#12D1B1" points="-9.25,10.495 -8.896,10.259 25.476,69.196 25.122,69.433 		"/>
		<polyline clip-path="url(#SVGID_4_)" fill="#12D1B1" points="-9.014,10.377 -8.776,10.137 25.594,69.079 25.358,69.314 		"/>
		<polyline clip-path="url(#SVGID_4_)" fill="#12D1B1" points="-8.896,10.259 -8.54,10.019 25.83,68.961 25.476,69.196 		"/>
		<polyline clip-path="url(#SVGID_4_)" fill="#12D1B1" points="-8.658,10.137 -8.304,9.901 26.066,68.843 25.712,69.079 		"/>
		<polyline clip-path="url(#SVGID_4_)" fill="#12D2B1" points="-8.422,10.019 -8.068,9.783 26.302,68.725 25.948,68.961 		"/>
		<polyline clip-path="url(#SVGID_4_)" fill="#12D2B1" points="-8.186,9.901 -7.95,9.665 26.42,68.606 26.184,68.843 		"/>
		<polyline clip-path="url(#SVGID_4_)" fill="#12D2B0" points="-7.95,9.783 -7.714,9.547 26.658,68.488 26.42,68.725 		"/>
		<polyline clip-path="url(#SVGID_4_)" fill="#12D2B0" points="-7.832,9.547 -7.478,9.429 26.894,68.371 26.54,68.606 		"/>
		<polyline clip-path="url(#SVGID_4_)" fill="#12D2B0" points="-7.596,9.429 -7.242,9.311 27.13,68.253 26.776,68.488 		"/>
		<polyline clip-path="url(#SVGID_4_)" fill="#12D2B0" points="-7.36,9.311 -7.006,9.193 27.366,68.135 27.012,68.253 		"/>
		<polyline clip-path="url(#SVGID_4_)" fill="#12D3B0" points="-7.124,9.193 -6.888,9.075 27.484,68.017 27.248,68.135 		"/>
		<polyline clip-path="url(#SVGID_4_)" fill="#12D3B0" points="-7.006,9.075 -6.65,8.957 27.72,67.898 27.366,68.017 		"/>
		<polyline clip-path="url(#SVGID_4_)" fill="#12D3B0" points="-6.768,8.957 -6.414,8.839 27.956,67.78 27.602,67.898 		"/>
		<polyline clip-path="url(#SVGID_4_)" fill="#12D3B0" points="-6.532,8.839 -6.178,8.721 28.192,67.663 27.838,67.78 		"/>
		<polyline clip-path="url(#SVGID_4_)" fill="#12D3AF" points="-6.296,8.721 -6.06,8.603 28.31,67.545 28.074,67.663 		"/>
		<polyline clip-path="url(#SVGID_4_)" fill="#12D4AF" points="-6.06,8.603 -5.824,8.485 28.548,67.427 28.31,67.545 		"/>
		<polyline clip-path="url(#SVGID_4_)" fill="#12D4AF" points="-5.942,8.485 -5.588,8.367 28.784,67.309 28.43,67.427 		"/>
		<polyline clip-path="url(#SVGID_4_)" fill="#12D4AF" points="-5.706,8.367 -5.352,8.249 29.02,67.19 28.666,67.309 		"/>
		<polyline clip-path="url(#SVGID_4_)" fill="#12D4AF" points="-5.47,8.249 -5.234,8.131 29.256,67.072 28.902,67.19 		"/>
		<polyline clip-path="url(#SVGID_4_)" fill="#12D4AF" points="-5.234,8.131 -4.998,8.013 29.374,66.954 29.138,67.072 		"/>
		<polyline clip-path="url(#SVGID_4_)" fill="#12D4AF" points="-5.116,8.013 -4.762,7.777 29.61,66.837 29.256,66.954 		"/>
		<polyline clip-path="url(#SVGID_4_)" fill="#12D5AF" points="-4.88,7.895 -4.526,7.659 29.846,66.715 29.492,66.837 		"/>
		<polyline clip-path="url(#SVGID_4_)" fill="#12D5AE" points="-4.644,7.777 -4.288,7.541 30.082,66.479 29.728,66.715 		"/>
		<polyline clip-path="url(#SVGID_4_)" fill="#12D5AE" points="-4.408,7.659 -4.17,7.423 30.2,66.36 29.964,66.601 		"/>
		<polyline clip-path="url(#SVGID_4_)" fill="#12D5AE" points="-4.288,7.541 -3.934,7.305 30.436,66.242 30.082,66.479 		"/>
		<polyline clip-path="url(#SVGID_4_)" fill="#12D5AE" points="-4.052,7.423 -3.698,7.187 30.672,66.124 30.318,66.36 		"/>
		<polyline clip-path="url(#SVGID_4_)" fill="#12D5AE" points="-3.816,7.305 -3.462,7.069 30.91,66.007 30.554,66.242 		"/>
		<polyline clip-path="url(#SVGID_4_)" fill="#12D6AE" points="-3.58,7.187 -3.344,6.951 31.028,65.889 30.79,66.124 		"/>
		<polyline clip-path="url(#SVGID_4_)" fill="#12D6AE" points="-3.344,7.069 -3.108,6.833 31.264,65.771 31.028,66.007 		"/>
		<polyline clip-path="url(#SVGID_4_)" fill="#12D6AE" points="-3.226,6.951 -2.872,6.715 31.5,65.652 31.146,65.889 		"/>
		<polyline clip-path="url(#SVGID_4_)" fill="#12D6AD" points="-2.99,6.833 -2.636,6.597 31.736,65.534 31.382,65.771 		"/>
		<polyline clip-path="url(#SVGID_4_)" fill="#12D6AD" points="-2.754,6.715 -2.398,6.479 31.972,65.416 31.618,65.652 		"/>
		<polyline clip-path="url(#SVGID_4_)" fill="#12D6AD" points="-2.518,6.597 -2.28,6.361 32.09,65.299 31.854,65.534 		"/>
		<polyline clip-path="url(#SVGID_4_)" fill="#12D7AD" points="-2.398,6.479 -2.044,6.243 32.326,65.181 31.972,65.416 		"/>
		<polyline clip-path="url(#SVGID_4_)" fill="#12D7AD" points="-2.162,6.361 -1.808,6.125 32.562,65.063 32.208,65.299 		"/>
		<polyline clip-path="url(#SVGID_4_)" fill="#12D7AD" points="-1.926,6.243 -1.572,6.007 32.798,64.944 32.444,65.181 		"/>
		<polyline clip-path="url(#SVGID_4_)" fill="#12D7AD" points="-1.69,6.007 -1.454,5.889 32.918,64.826 32.68,65.063 		"/>
		<polyline clip-path="url(#SVGID_4_)" fill="#12D7AD" points="-1.454,5.889 -1.218,5.767 33.154,64.708 32.918,64.944 		"/>
		<polyline clip-path="url(#SVGID_4_)" fill="#12D7AC" points="-1.336,5.767 -0.982,5.649 33.39,64.591 33.036,64.708 		"/>
		<polyline clip-path="url(#SVGID_4_)" fill="#12D8AC" points="-1.1,5.649 -0.746,5.531 33.626,64.473 33.272,64.591 		"/>
		<polyline clip-path="url(#SVGID_4_)" fill="#12D8AC" points="-0.864,5.531 -0.51,5.413 33.862,64.354 33.508,64.473 		"/>
		<polyline clip-path="url(#SVGID_4_)" fill="#12D8AC" points="-0.628,5.413 -0.392,5.295 33.98,64.236 33.744,64.354 		"/>
		<polyline clip-path="url(#SVGID_4_)" fill="#12D8AC" points="-0.51,5.295 -0.156,5.177 34.216,64.118 33.862,64.236 		"/>
		<polyline clip-path="url(#SVGID_4_)" fill="#12D8AC" points="-0.274,5.177 0.083,5.059 34.452,64 34.098,64.118 		"/>
		<polyline clip-path="url(#SVGID_4_)" fill="#12D9AC" points="-0.038,5.059 0.318,4.941 34.688,63.883 34.334,64 		"/>
		<polyline clip-path="url(#SVGID_4_)" fill="#12D9AC" points="0.2,4.941 0.437,4.823 34.806,63.765 34.57,63.883 		"/>
		<polyline clip-path="url(#SVGID_4_)" fill="#12D9AB" points="0.437,4.823 0.672,4.705 35.042,63.646 34.806,63.765 		"/>
		<polyline clip-path="url(#SVGID_4_)" fill="#12D9AB" points="0.554,4.705 0.908,4.587 35.278,63.528 34.924,63.646 		"/>
		<polyline clip-path="url(#SVGID_4_)" fill="#12D9AB" points="0.791,4.587 1.145,4.469 35.516,63.41 35.16,63.528 		"/>
		<polyline clip-path="url(#SVGID_4_)" fill="#12D9AB" points="1.026,4.469 1.38,4.233 35.752,63.292 35.398,63.41 		"/>
		<polyline clip-path="url(#SVGID_4_)" fill="#12DAAB" points="1.262,4.351 1.499,4.115 35.87,63.175 35.634,63.292 		"/>
		<polyline clip-path="url(#SVGID_4_)" fill="#12DAAB" points="1.38,4.233 1.734,3.997 36.106,62.938 35.752,63.175 		"/>
		<polyline clip-path="url(#SVGID_4_)" fill="#12DAAB" points="1.616,4.115 1.973,3.879 36.342,62.82 35.988,63.057 		"/>
		<polyline clip-path="url(#SVGID_4_)" fill="#12DAAB" points="1.853,3.997 2.208,3.761 36.578,62.702 36.224,62.938 		"/>
		<polyline clip-path="url(#SVGID_4_)" fill="#12DAAA" points="2.09,3.879 2.327,3.643 36.696,62.584 36.46,62.82 		"/>
		<polyline clip-path="url(#SVGID_4_)" fill="#12DAAA" points="2.208,3.761 2.563,3.525 36.932,62.467 36.578,62.702 		"/>
		<polyline clip-path="url(#SVGID_4_)" fill="#12DBAA" points="2.444,3.643 2.798,3.407 37.168,62.345 36.814,62.584 		"/>
		<polyline clip-path="url(#SVGID_4_)" fill="#12DBAA" points="2.681,3.525 3.035,3.289 37.406,62.23 37.05,62.467 		"/>
		<polyline clip-path="url(#SVGID_4_)" fill="#12DBAA" points="2.917,3.407 3.152,3.171 37.524,62.108 37.288,62.345 		"/>
		<polyline clip-path="url(#SVGID_4_)" fill="#12DBAA" points="3.152,3.289 3.389,3.053 37.76,61.99 37.524,62.23 		"/>
		<polyline clip-path="url(#SVGID_4_)" fill="#12DBAA" points="3.271,3.171 3.625,2.935 37.997,61.872 37.642,62.108 		"/>
		<polyline clip-path="url(#SVGID_4_)" fill="#12DBAA" points="3.506,3.053 3.86,2.817 38.232,61.754 37.878,61.99 		"/>
		<polyline clip-path="url(#SVGID_4_)" fill="#12DCA9" points="3.743,2.935 4.097,2.699 38.468,61.637 38.114,61.872 		"/>
		<polyline clip-path="url(#SVGID_4_)" fill="#12DCA9" points="3.979,2.817 4.214,2.581 38.586,61.519 38.351,61.754 		"/>
		<polyline clip-path="url(#SVGID_4_)" fill="#12DCA9" points="4.097,2.699 4.453,2.463 38.822,61.4 38.468,61.637 		"/>
		<polyline clip-path="url(#SVGID_4_)" fill="#12DCA9" points="4.333,2.463 4.688,2.345 39.059,61.282 38.705,61.519 		"/>
		<polyline clip-path="url(#SVGID_4_)" fill="#12DCA9" points="4.571,2.345 4.925,2.227 39.294,61.164 38.94,61.4 		"/>
		<polyline clip-path="url(#SVGID_4_)" fill="#12DCA9" points="4.807,2.227 5.042,2.109 39.413,61.046 39.176,61.164 		"/>
		<polyline clip-path="url(#SVGID_4_)" fill="#12DDA9" points="5.042,2.109 5.279,1.991 39.648,60.929 39.413,61.046 		"/>
		<polyline clip-path="url(#SVGID_4_)" fill="#12DDA9" points="5.161,1.991 5.515,1.873 39.886,60.811 39.53,60.929 		"/>
		<polyline clip-path="url(#SVGID_4_)" fill="#12DDA8" points="5.396,1.873 5.75,1.755 40.123,60.692 39.769,60.811 		"/>
		<polyline clip-path="url(#SVGID_4_)" fill="#12DDA8" points="5.633,1.755 5.987,1.637 40.358,60.574 40.004,60.692 		"/>
		<polyline clip-path="url(#SVGID_4_)" fill="#12DDA8" points="5.869,1.637 6.104,1.519 40.477,60.456 40.24,60.574 		"/>
		<polyline clip-path="url(#SVGID_4_)" fill="#12DEA8" points="5.987,1.519 6.341,1.401 40.712,60.338 40.358,60.456 		"/>
		<polyline clip-path="url(#SVGID_4_)" fill="#12DEA8" points="6.223,1.401 6.579,1.279 40.948,60.22 40.594,60.338 		"/>
		<polyline clip-path="url(#SVGID_4_)" fill="#12DEA8" points="6.461,1.279 6.815,1.161 41.185,60.103 40.831,60.22 		"/>
		<polyline clip-path="url(#SVGID_4_)" fill="#12DEA8" points="6.697,1.161 6.933,1.042 41.303,59.984 41.066,60.103 		"/>
		<polyline clip-path="url(#SVGID_4_)" fill="#12DEA8" points="6.933,1.042 7.169,0.924 41.539,59.866 41.303,59.984 		"/>
		<polyline clip-path="url(#SVGID_4_)" fill="#12DEA7" points="7.051,0.924 7.405,0.688 41.776,59.748 41.42,59.866 		"/>
		<polyline clip-path="url(#SVGID_4_)" fill="#12DFA7" points="7.287,0.807 7.641,0.57 42.013,59.63 41.659,59.748 		"/>
		<polyline clip-path="url(#SVGID_4_)" fill="#12DFA7" points="7.523,0.688 7.759,0.453 42.13,59.395 41.895,59.63 		"/>
		<polyline clip-path="url(#SVGID_4_)" fill="#12DFA7" points="7.759,0.57 7.995,0.334 42.367,59.276 42.13,59.512 		"/>
		<polyline clip-path="url(#SVGID_4_)" fill="#13DFA7" points="7.877,0.453 8.231,0.216 42.603,59.158 42.249,59.395 		"/>
		<polyline clip-path="url(#SVGID_4_)" fill="#13DFA7" points="8.113,0.334 8.467,0.099 42.838,59.04 42.484,59.276 		"/>
		<polyline clip-path="url(#SVGID_4_)" fill="#13DFA7" points="8.349,0.216 8.703,-0.02 43.075,58.922 42.721,59.158 		"/>
		<polyline clip-path="url(#SVGID_4_)" fill="#13E0A7" points="8.585,0.099 8.821,-0.138 43.192,58.804 42.957,59.04 		"/>
		<polyline clip-path="url(#SVGID_4_)" fill="#13E0A6" points="8.703,-0.02 9.059,-0.255 43.429,58.687 43.075,58.922 		"/>
		<polyline clip-path="url(#SVGID_4_)" fill="#13E0A6" points="8.941,-0.138 9.295,-0.374 43.665,58.568 43.311,58.804 		"/>
		<polyline clip-path="url(#SVGID_4_)" fill="#13E0A6" points="9.177,-0.255 9.531,-0.492 43.9,58.45 43.546,58.687 		"/>
		<polyline clip-path="url(#SVGID_4_)" fill="#13E0A6" points="9.413,-0.374 9.649,-0.609 44.019,58.332 43.783,58.568 		"/>
		<polyline clip-path="url(#SVGID_4_)" fill="#13E0A6" points="9.649,-0.492 9.885,-0.728 44.257,58.214 44.019,58.45 		"/>
		<polyline clip-path="url(#SVGID_4_)" fill="#13E1A6" points="9.767,-0.609 10.121,-0.846 44.493,58.096 44.137,58.332 		"/>
		<polyline clip-path="url(#SVGID_4_)" fill="#13E1A6" points="10.003,-0.728 10.357,-0.963 44.729,57.979 44.375,58.214 		"/>
		<polyline clip-path="url(#SVGID_4_)" fill="#13E1A6" points="10.239,-0.846 10.593,-1.082 44.965,57.86 44.611,58.096 		"/>
		<polyline clip-path="url(#SVGID_4_)" fill="#13E1A5" points="10.475,-1.082 10.711,-1.2 45.083,57.738 44.847,57.979 		"/>
		<polyline clip-path="url(#SVGID_4_)" fill="#13E1A5" points="10.593,-1.2 10.949,-1.317 45.319,57.62 44.965,57.86 		"/>
		<polyline clip-path="url(#SVGID_4_)" fill="#13E2A5" points="10.831,-1.317 11.185,-1.436 45.555,57.502 45.201,57.62 		"/>
		<polyline clip-path="url(#SVGID_4_)" fill="#13E2A5" points="11.067,-1.436 11.421,-1.554 45.791,57.384 45.437,57.502 		"/>
		<polyline clip-path="url(#SVGID_4_)" fill="#13E2A5" points="11.303,-1.554 11.539,-1.671 45.909,57.266 45.673,57.384 		"/>
		<polyline clip-path="url(#SVGID_4_)" fill="#13E2A5" points="11.539,-1.671 11.775,-1.79 46.147,57.148 45.909,57.266 		"/>
		<polyline clip-path="url(#SVGID_4_)" fill="#13E2A5" points="11.657,-1.79 12.011,-1.908 46.383,57.03 46.027,57.148 		"/>
		<polyline clip-path="url(#SVGID_4_)" fill="#13E2A5" points="11.893,-1.908 12.247,-2.025 46.619,56.912 46.265,57.03 		"/>
		<polyline clip-path="url(#SVGID_4_)" fill="#13E3A4" points="12.129,-2.025 12.483,-2.144 46.855,56.794 46.501,56.912 		"/>
		<polyline clip-path="url(#SVGID_4_)" fill="#13E3A4" points="12.365,-2.144 12.601,-2.262 46.973,56.676 46.737,56.794 		"/>
		<polyline clip-path="url(#SVGID_4_)" fill="#13E3A4" points="12.483,-2.262 12.837,-2.379 47.209,56.558 46.855,56.676 		"/>
		<polyline clip-path="url(#SVGID_4_)" fill="#13E3A4" points="12.719,-2.379 13.073,-2.498 47.445,56.44 47.091,56.558 		"/>
		<polyline clip-path="url(#SVGID_4_)" fill="#13E3A4" points="12.955,-2.498 13.311,-2.616 47.681,56.322 47.327,56.44 		"/>
		<polyline clip-path="url(#SVGID_4_)" fill="#13E3A4" points="13.191,-2.616 13.429,-2.852 47.799,56.204 47.563,56.322 		"/>
		<polyline clip-path="url(#SVGID_4_)" fill="#13E4A4" points="13.429,-2.733 13.665,-2.97 48.035,56.086 47.799,56.204 		"/>
		<polyline clip-path="url(#SVGID_4_)" fill="#13E4A4" points="13.547,-2.852 13.901,-3.092 48.271,55.85 47.917,56.086 		"/>
		<polyline clip-path="url(#SVGID_4_)" fill="#13E4A3" points="13.783,-2.97 14.137,-3.209 48.507,55.732 48.153,55.968 		"/>
		<polyline clip-path="url(#SVGID_4_)" fill="#13E4A3" points="14.019,-3.092 14.255,-3.328 48.627,55.614 48.389,55.85 		"/>
		<polyline clip-path="url(#SVGID_4_)" fill="#13E4A3" points="14.255,-3.209 14.491,-3.446 48.863,55.496 48.627,55.732 		"/>
		<polyline clip-path="url(#SVGID_4_)" fill="#13E4A3" points="14.373,-3.328 14.727,-3.563 49.099,55.378 48.745,55.614 		"/>
		<polyline clip-path="url(#SVGID_4_)" fill="#13E5A3" points="14.609,-3.446 14.963,-3.682 49.335,55.26 48.981,55.496 		"/>
		<polyline clip-path="url(#SVGID_4_)" fill="#13E5A3" points="14.845,-3.563 15.201,-3.8 49.571,55.142 49.217,55.378 		"/>
		<polyline clip-path="url(#SVGID_4_)" fill="#13E5A3" points="15.081,-3.682 15.319,-3.917 49.689,55.024 49.453,55.26 		"/>
		<polyline clip-path="url(#SVGID_4_)" fill="#13E5A3" points="15.201,-3.8 15.555,-4.036 49.925,54.906 49.571,55.142 		"/>
		<polyline clip-path="url(#SVGID_4_)" fill="#13E5A2" points="15.437,-3.917 15.791,-4.154 50.161,54.788 49.807,55.024 		"/>
		<polyline clip-path="url(#SVGID_4_)" fill="#13E5A2" points="15.673,-4.036 16.027,-4.271 50.397,54.67 50.043,54.906 		"/>
		<polyline clip-path="url(#SVGID_4_)" fill="#13E6A2" points="15.909,-4.154 16.145,-4.39 50.517,54.552 50.279,54.788 		"/>
		<polyline clip-path="url(#SVGID_4_)" fill="#13E6A2" points="16.145,-4.271 16.381,-4.508 50.753,54.434 50.517,54.67 		"/>
		<polyline clip-path="url(#SVGID_4_)" fill="#13E6A2" points="16.263,-4.39 16.617,-4.625 50.989,54.315 50.635,54.552 		"/>
		<polyline clip-path="url(#SVGID_4_)" fill="#13E6A2" points="16.499,-4.625 16.853,-4.744 51.225,54.198 50.871,54.434 		"/>
		<polyline clip-path="url(#SVGID_4_)" fill="#13E6A2" points="16.735,-4.744 17.089,-4.862 51.461,54.08 51.107,54.315 		"/>
		<polyline clip-path="url(#SVGID_4_)" fill="#13E7A2" points="16.971,-4.862 17.207,-4.979 51.579,53.962 51.343,54.08 		"/>
		<polyline clip-path="url(#SVGID_4_)" fill="#13E7A1" points="17.089,-4.979 17.443,-5.098 51.815,53.844 51.461,53.962 		"/>
		<polyline clip-path="url(#SVGID_4_)" fill="#13E7A1" points="17.325,-5.098 17.681,-5.216 52.051,53.726 51.697,53.844 		"/>
		<polyline clip-path="url(#SVGID_4_)" fill="#13E7A1" points="17.561,-5.216 17.917,-5.334 52.287,53.607 51.933,53.726 		"/>
		<polyline clip-path="url(#SVGID_4_)" fill="#13E7A1" points="17.799,-5.334 18.035,-5.452 52.405,53.49 52.169,53.607 		"/>
		<polyline clip-path="url(#SVGID_4_)" fill="#13E7A1" points="18.035,-5.452 18.271,-5.57 52.641,53.368 52.405,53.49 		"/>
		<polyline clip-path="url(#SVGID_4_)" fill="#13E8A1" points="18.153,-5.57 18.507,-5.688 52.877,53.254 52.523,53.368 		"/>
		<polyline clip-path="url(#SVGID_4_)" fill="#13E8A1" points="18.389,-5.688 18.743,-5.806 53.115,53.132 52.759,53.254 		"/>
		<polyline clip-path="url(#SVGID_4_)" fill="#13E8A1" points="18.625,-5.806 18.979,-5.924 53.351,53.014 52.997,53.132 		"/>
		<polyline clip-path="url(#SVGID_4_)" fill="#13E8A0" points="18.861,-5.924 19.097,-6.042 53.469,52.896 53.233,53.014 		"/>
		<polyline clip-path="url(#SVGID_4_)" fill="#13E8A0" points="18.979,-6.042 19.333,-6.16 53.705,52.777 53.351,52.896 		"/>
		<polyline clip-path="url(#SVGID_4_)" fill="#13E8A0" points="19.215,-6.16 19.569,-6.396 53.941,52.66 53.587,52.777 		"/>
		<polyline clip-path="url(#SVGID_4_)" fill="#13E9A0" points="19.451,-6.278 19.808,-6.514 54.177,52.542 53.823,52.66 		"/>
		<polyline clip-path="url(#SVGID_4_)" fill="#13E9A0" points="19.689,-6.396 19.925,-6.632 54.295,52.306 54.059,52.542 		"/>
		<polyline clip-path="url(#SVGID_4_)" fill="#13E9A0" points="19.925,-6.514 20.162,-6.75 54.531,52.188 54.295,52.424 		"/>
		<polyline clip-path="url(#SVGID_4_)" fill="#13E9A0" points="20.043,-6.632 20.397,-6.868 54.767,52.069 54.413,52.306 		"/>
		<polyline clip-path="url(#SVGID_4_)" fill="#13E9A0" points="20.279,-6.75 20.633,-6.986 55.005,51.952 54.649,52.188 		"/>
		<polyline clip-path="url(#SVGID_4_)" fill="#13E99F" points="20.516,-6.868 20.751,-7.104 55.123,51.834 54.885,52.069 		"/>
		<polyline clip-path="url(#SVGID_4_)" fill="#13EA9F" points="20.751,-6.986 20.987,-7.222 55.359,51.716 55.123,51.952 		"/>
		<polyline clip-path="url(#SVGID_4_)" fill="#13EA9F" points="20.87,-7.104 21.224,-7.34 55.595,51.598 55.241,51.834 		"/>
		<polyline clip-path="url(#SVGID_4_)" fill="#13EA9F" points="21.105,-7.222 21.459,-7.462 55.831,51.479 55.477,51.716 		"/>
		<polyline clip-path="url(#SVGID_4_)" fill="#13EA9F" points="21.341,-7.34 21.695,-7.58 56.067,51.361 55.713,51.598 		"/>
		<polyline clip-path="url(#SVGID_4_)" fill="#13EA9F" points="21.578,-7.462 21.813,-7.698 56.185,51.244 55.949,51.479 		"/>
		<polyline clip-path="url(#SVGID_4_)" fill="#13EA9F" points="21.695,-7.58 22.049,-7.816 56.421,51.126 56.067,51.361 		"/>
		<polyline clip-path="url(#SVGID_4_)" fill="#13EB9F" points="21.932,-7.698 22.288,-7.934 56.657,51.008 56.303,51.244 		"/>
		<polyline clip-path="url(#SVGID_4_)" fill="#13EB9E" points="22.169,-7.816 22.523,-8.052 56.894,50.89 56.539,51.126 		"/>
		<polyline clip-path="url(#SVGID_4_)" fill="#13EB9E" points="22.406,-7.934 22.642,-8.17 57.011,50.771 56.775,51.008 		"/>
		<polyline clip-path="url(#SVGID_4_)" fill="#13EB9E" points="22.642,-8.17 22.877,-8.288 57.248,50.653 57.011,50.89 		"/>
		<polyline clip-path="url(#SVGID_4_)" fill="#13EB9E" points="22.76,-8.288 23.114,-8.406 57.485,50.536 57.129,50.771 		"/>
		<polyline clip-path="url(#SVGID_4_)" fill="#13EC9E" points="22.996,-8.406 23.35,-8.524 57.721,50.418 57.365,50.536 		"/>
		<polyline clip-path="url(#SVGID_4_)" fill="#13EC9E" points="23.231,-8.524 23.585,-8.642 57.958,50.3 57.604,50.418 		"/>
		<polyline clip-path="url(#SVGID_4_)" fill="#13EC9E" points="23.468,-8.642 23.704,-8.76 58.075,50.182 57.839,50.3 		"/>
		<polyline clip-path="url(#SVGID_4_)" fill="#13EC9E" points="23.585,-8.76 23.939,-8.878 58.312,50.063 57.958,50.182 		"/>
		<polyline clip-path="url(#SVGID_4_)" fill="#13EC9D" points="23.822,-8.878 24.178,-8.996 58.547,49.945 58.193,50.063 		"/>
		<polyline clip-path="url(#SVGID_4_)" fill="#13EC9D" points="24.06,-8.996 24.414,-9.114 58.783,49.828 58.429,49.945 		"/>
		<polyline clip-path="url(#SVGID_4_)" fill="#13ED9D" points="24.295,-9.114 24.532,-9.232 58.901,49.71 58.666,49.828 		"/>
		<polyline clip-path="url(#SVGID_4_)" fill="#13ED9D" points="24.532,-9.232 24.768,-9.35 59.137,49.592 58.901,49.71 		"/>
		<polyline clip-path="url(#SVGID_4_)" fill="#13ED9D" points="24.649,-9.35 25.003,-9.468 59.375,49.474 59.02,49.592 		"/>
		<polyline clip-path="url(#SVGID_4_)" fill="#13ED9D" points="24.886,-9.468 25.24,-9.586 59.611,49.355 59.255,49.474 		"/>
		<polyline clip-path="url(#SVGID_4_)" fill="#13ED9D" points="25.122,-9.586 25.476,-9.704 59.848,49.237 59.494,49.355 		"/>
		<polyline clip-path="url(#SVGID_4_)" fill="#13ED9D" points="25.358,-9.704 25.594,-9.94 59.965,49.12 59.729,49.237 		"/>
		<polyline clip-path="url(#SVGID_4_)" fill="#13EE9C" points="25.476,-9.822 25.83,-10.058 60.202,48.998 59.848,49.12 		"/>
		<polyline clip-path="url(#SVGID_4_)" fill="#13EE9C" points="25.712,-9.94 26.066,-10.176 60.438,48.762 60.083,48.998 		"/>
		<polyline clip-path="url(#SVGID_4_)" fill="#13EE9C" points="25.948,-10.058 26.302,-10.294 60.673,48.644 60.319,48.884 		"/>
		<polyline clip-path="url(#SVGID_4_)" fill="#13EE9C" points="26.184,-10.176 26.42,-10.412 60.792,48.525 60.556,48.762 		"/>
		<polyline clip-path="url(#SVGID_4_)" fill="#13EE9C" points="26.42,-10.294 26.658,-10.53 61.027,48.407 60.792,48.644 		"/>
		<polyline clip-path="url(#SVGID_4_)" fill="#13EE9C" points="26.54,-10.412 26.894,-10.648 61.264,48.29 60.91,48.525 		"/>
		<polyline clip-path="url(#SVGID_4_)" fill="#13EF9C" points="26.776,-10.53 27.13,-10.766 61.5,48.172 61.146,48.407 		"/>
		<polyline clip-path="url(#SVGID_4_)" fill="#13EF9C" points="27.012,-10.648 27.248,-10.884 61.618,48.054 61.381,48.29 		"/>
		<polyline clip-path="url(#SVGID_4_)" fill="#13EF9B" points="27.248,-10.766 27.484,-11.002 61.855,47.936 61.618,48.172 		"/>
		<polyline clip-path="url(#SVGID_4_)" fill="#13EF9B" points="27.366,-10.884 27.72,-11.12 62.092,47.817 61.735,48.054 		"/>
		<polyline clip-path="url(#SVGID_4_)" fill="#13EF9B" points="27.602,-11.002 27.956,-11.238 62.328,47.699 61.974,47.936 		"/>
		<polyline clip-path="url(#SVGID_4_)" fill="#13EF9B" points="27.838,-11.12 28.192,-11.356 62.563,47.581 62.209,47.817 		"/>
		<polyline clip-path="url(#SVGID_4_)" fill="#13F09B" points="28.074,-11.238 28.31,-11.474 62.682,47.464 62.446,47.699 		"/>
		<polyline clip-path="url(#SVGID_4_)" fill="#13F09B" points="28.192,-11.356 28.548,-11.592 62.917,47.346 62.563,47.581 		"/>
		<polyline clip-path="url(#SVGID_4_)" fill="#13F09B" points="28.43,-11.474 28.784,-11.71 63.154,47.228 62.8,47.464 		"/>
		<polyline clip-path="url(#SVGID_4_)" fill="#13F09B" points="28.666,-11.71 29.02,-11.828 63.39,47.109 63.036,47.346 		"/>
		<polyline clip-path="url(#SVGID_4_)" fill="#13F09A" points="28.902,-11.828 29.138,-11.95 63.508,46.991 63.271,47.228 		"/>
		<polyline clip-path="url(#SVGID_4_)" fill="#13F19A" points="29.138,-11.95 29.374,-12.068 63.746,46.873 63.508,46.991 		"/>
		<polyline clip-path="url(#SVGID_4_)" fill="#13F19A" points="29.256,-12.068 29.61,-12.186 63.982,46.756 63.625,46.873 		"/>
		<polyline clip-path="url(#SVGID_4_)" fill="#13F19A" points="29.492,-12.186 29.846,-12.304 64.218,46.638 63.864,46.756 		"/>
		<polyline clip-path="url(#SVGID_4_)" fill="#13F19A" points="29.728,-12.304 30.082,-12.422 64.454,46.52 64.1,46.638 		"/>
		<polyline clip-path="url(#SVGID_4_)" fill="#13F19A" points="29.964,-12.422 30.2,-12.54 64.572,46.401 64.336,46.52 		"/>
		<polyline clip-path="url(#SVGID_4_)" fill="#13F19A" points="30.082,-12.54 30.436,-12.658 64.808,46.283 64.454,46.401 		"/>
		<polyline clip-path="url(#SVGID_4_)" fill="#13F29A" points="30.318,-12.658 30.672,-12.776 65.044,46.165 64.69,46.283 		"/>
		<polyline clip-path="url(#SVGID_4_)" fill="#13F299" points="30.554,-12.776 30.91,-12.894 65.28,46.048 64.926,46.165 		"/>
		<polyline clip-path="url(#SVGID_4_)" fill="#13F299" points="30.79,-12.894 31.028,-13.012 65.398,45.93 65.162,46.048 		"/>
		<polyline clip-path="url(#SVGID_4_)" fill="#13F299" points="31.028,-13.012 31.264,-13.13 65.634,45.812 65.398,45.93 		"/>
		<polyline clip-path="url(#SVGID_4_)" fill="#13F299" points="31.146,-13.13 31.5,-13.248 65.87,45.693 65.516,45.812 		"/>
		<polyline clip-path="url(#SVGID_4_)" fill="#13F299" points="31.382,-13.248 31.736,-13.484 66.106,45.575 65.752,45.693 		"/>
		<polyline clip-path="url(#SVGID_4_)" fill="#13F399" points="31.618,-13.366 31.972,-13.602 66.344,45.457 65.988,45.575 		"/>
		<polyline clip-path="url(#SVGID_4_)" fill="#13F399" points="31.854,-13.484 32.09,-13.72 66.462,45.222 66.226,45.457 		"/>
		<polyline clip-path="url(#SVGID_4_)" fill="#13F399" points="31.972,-13.602 32.326,-13.838 66.698,45.104 66.344,45.34 		"/>
		<polyline clip-path="url(#SVGID_4_)" fill="#13F398" points="32.208,-13.72 32.562,-13.956 66.934,44.985 66.58,45.222 		"/>
		<polyline clip-path="url(#SVGID_4_)" fill="#13F398" points="32.444,-13.838 32.798,-14.074 67.17,44.867 66.816,45.104 		"/>
		<polyline clip-path="url(#SVGID_4_)" fill="#13F398" points="32.68,-13.956 32.918,-14.192 67.288,44.749 67.052,44.985 		"/>
		<polyline clip-path="url(#SVGID_4_)" fill="#13F498" points="32.798,-14.074 33.154,-14.31 67.524,44.627 67.17,44.867 		"/>
		<polyline clip-path="url(#SVGID_4_)" fill="#13F498" points="33.036,-14.192 33.39,-14.428 67.76,44.514 67.406,44.749 		"/>
		<polyline clip-path="url(#SVGID_4_)" fill="#13F498" points="33.272,-14.31 33.626,-14.546 67.996,44.392 67.642,44.627 		"/>
		<polyline clip-path="url(#SVGID_4_)" fill="#13F498" points="33.508,-14.428 33.744,-14.664 68.114,44.273 67.878,44.514 		"/>
		<polyline clip-path="url(#SVGID_4_)" fill="#13F498" points="33.744,-14.546 33.98,-14.782 68.352,44.155 68.114,44.392 		"/>
		<polyline clip-path="url(#SVGID_4_)" fill="#13F497" points="33.862,-14.664 34.216,-14.9 68.588,44.037 68.234,44.273 		"/>
		<polyline clip-path="url(#SVGID_4_)" fill="#13F597" points="34.098,-14.782 34.452,-15.018 68.824,43.919 68.47,44.155 		"/>
		<polyline clip-path="url(#SVGID_4_)" fill="#13F597" points="34.334,-14.9 34.688,-15.136 69.06,43.802 68.706,44.037 		"/>
		<polyline clip-path="url(#SVGID_4_)" fill="#13F597" points="34.57,-15.018 35.042,-15.372 69.414,43.565 68.942,43.919 		"/>
	</g>
	<path fill="#383838" d="M157.643,48.407h0.708v9.925h-0.708V48.407z M160.715,51.361h0.59v1.299
		c0.236-0.473,0.59-0.826,0.944-1.063c0.354-0.236,0.826-0.354,1.298-0.354c0.83,0,1.42,0.235,1.774,0.708
		c0.472,0.472,0.59,1.062,0.708,1.892v4.488h-0.708v-4.37c0-0.594-0.118-1.185-0.473-1.538c-0.354-0.354-0.83-0.59-1.42-0.59
		c-0.472,0-0.826,0.118-1.062,0.235c-0.354,0.236-0.591,0.473-0.708,0.826c-0.236,0.358-0.354,0.712-0.354,1.185v4.252h-0.59V51.361
		z M170.399,58.45c-0.59,0-1.181-0.236-1.652-0.472c-0.476-0.358-0.83-0.83-1.066-1.421c-0.235-0.472-0.354-1.062-0.354-1.77
		s0.118-1.298,0.354-1.774c0.236-0.59,0.591-1.062,1.066-1.298c0.472-0.354,1.063-0.472,1.652-0.472s1.18,0.117,1.652,0.472
		c0.472,0.354,0.825,0.826,1.065,1.416v-4.725h0.59v9.925h-0.59V56.44c-0.24,0.59-0.594,1.062-1.065,1.42
		C171.579,58.214,170.989,58.45,170.399,58.45L170.399,58.45z M170.518,57.738c0.59,0,0.943-0.118,1.416-0.354
		c0.354-0.235,0.708-0.59,0.826-1.062c0.235-0.473,0.357-0.944,0.357-1.534s-0.122-1.063-0.357-1.534
		c-0.118-0.477-0.473-0.83-0.826-1.066c-0.473-0.235-0.826-0.354-1.416-0.354c-0.473,0-0.944,0.118-1.299,0.354
		c-0.472,0.236-0.708,0.59-0.947,1.066c-0.236,0.472-0.354,0.944-0.354,1.534s0.118,1.062,0.354,1.534
		c0.239,0.472,0.476,0.826,0.947,1.062C169.573,57.62,170.045,57.738,170.518,57.738L170.518,57.738z M175.831,48.407h0.709v1.421
		h-0.709V48.407z M175.831,51.361h0.591v6.971h-0.591V51.361z M180.792,51.244c0.826,0,1.538,0.235,2.01,0.708
		c0.473,0.472,0.708,1.18,0.708,2.01v4.37h-0.59v-1.656c-0.354,0.59-0.708,1.063-1.185,1.303c-0.472,0.235-0.943,0.472-1.533,0.472
		c-0.473,0-0.826-0.118-1.181-0.354c-0.354-0.117-0.708-0.357-0.826-0.712c-0.235-0.235-0.354-0.59-0.354-1.062
		c0-1.298,1.062-2.007,2.95-2.007h2.128V54.08c0-0.712-0.236-1.303-0.59-1.656c-0.236-0.472-0.83-0.59-1.538-0.59
		c-0.473,0-0.826,0.118-1.181,0.235c-0.354,0.236-0.708,0.473-0.943,0.944l-0.59-0.354c0.354-0.473,0.825-0.826,1.18-1.063
		C179.729,51.361,180.202,51.244,180.792,51.244L180.792,51.244z M180.319,57.86c0.591,0,1.181-0.24,1.538-0.595
		c0.473-0.354,0.826-0.825,1.063-1.416v-1.062h-2.01c-0.826,0-1.416,0.118-1.771,0.472c-0.354,0.236-0.59,0.59-0.59,1.063
		c0,0.472,0.118,0.826,0.472,1.062C179.376,57.738,179.729,57.86,180.319,57.86L180.319,57.86z M185.87,56.912h0.712v1.42h-0.712
		V56.912z M191.307,58.45c-0.595,0-1.185-0.236-1.538-0.472c-0.473-0.358-0.826-0.83-1.181-1.303
		c-0.235-0.59-0.354-1.18-0.354-1.888c0-0.59,0.118-1.181,0.354-1.774c0.236-0.472,0.591-0.944,1.063-1.298
		c0.472-0.354,1.062-0.472,1.656-0.472c0.59,0,1.18,0.117,1.651,0.472c0.473,0.354,0.826,0.826,1.063,1.416l-0.59,0.236
		c-0.236-0.473-0.473-0.826-0.826-1.181c-0.354-0.235-0.826-0.354-1.298-0.354c-0.473,0-0.948,0.118-1.303,0.354
		c-0.354,0.354-0.59,0.708-0.825,1.181c-0.118,0.476-0.236,0.947-0.236,1.42c0,0.59,0.118,1.062,0.236,1.534
		c0.235,0.472,0.472,0.826,0.825,1.062c0.354,0.236,0.83,0.354,1.303,0.354c0.472,0,0.943-0.118,1.298-0.354
		c0.354-0.235,0.59-0.59,0.826-1.062l0.59,0.235c-0.236,0.591-0.59,1.063-1.063,1.303C192.486,58.214,192.015,58.45,191.307,58.45
		L191.307,58.45z M197.919,58.45c-0.59,0-1.181-0.236-1.652-0.472c-0.472-0.358-0.944-0.83-1.184-1.303
		c-0.236-0.59-0.473-1.18-0.473-1.888s0.236-1.298,0.473-1.774c0.239-0.59,0.712-1.062,1.184-1.298
		c0.472-0.354,1.063-0.472,1.652-0.472c0.708,0,1.298,0.117,1.773,0.472c0.473,0.236,0.944,0.708,1.181,1.298
		c0.236,0.477,0.472,1.066,0.472,1.774s-0.235,1.298-0.472,1.77c-0.236,0.591-0.708,1.063-1.181,1.421
		C199.217,58.214,198.627,58.45,197.919,58.45L197.919,58.45z M197.919,57.86c0.59,0,1.062-0.24,1.416-0.477
		c0.476-0.235,0.712-0.59,0.948-1.062c0.235-0.473,0.354-0.944,0.354-1.534s-0.118-1.063-0.354-1.534
		c-0.236-0.477-0.473-0.83-0.948-1.066c-0.354-0.235-0.826-0.354-1.416-0.354c-0.473,0-0.944,0.118-1.298,0.354
		c-0.354,0.236-0.708,0.59-0.944,1.066c-0.236,0.472-0.354,0.944-0.354,1.534s0.118,1.062,0.354,1.534
		c0.236,0.472,0.59,0.826,0.944,1.062C196.975,57.62,197.446,57.86,197.919,57.86L197.919,57.86z M202.761,51.361h0.59v1.299
		c0.236-0.473,0.473-0.826,0.83-1.063c0.473-0.236,0.826-0.354,1.416-0.354c0.591,0,1.063,0.117,1.416,0.354
		c0.354,0.354,0.591,0.708,0.709,1.298c0.235-0.59,0.472-0.943,0.947-1.298c0.354-0.236,0.826-0.354,1.416-0.354
		c0.826,0,1.416,0.235,1.771,0.708c0.354,0.59,0.59,1.302,0.59,2.363v4.017h-0.708v-4.017c0-0.825-0.118-1.42-0.354-1.892
		c-0.354-0.354-0.826-0.59-1.416-0.59c-0.354,0-0.708,0.118-1.063,0.235c-0.354,0.236-0.59,0.473-0.712,0.826
		c-0.118,0.358-0.236,0.712-0.236,1.185v4.252h-0.708v-4.37c0-0.708-0.118-1.185-0.472-1.538c-0.236-0.354-0.708-0.59-1.298-0.59
		c-0.473,0-0.826,0.118-1.063,0.235c-0.354,0.236-0.594,0.473-0.712,0.826c-0.236,0.358-0.236,0.712-0.236,1.185v4.252h-0.708
		V51.361z"/>
	<path fill="#383838" d="M214.456,16.753c-0.591,0-1.181-0.118-1.771-0.472c-0.477-0.236-0.948-0.708-1.302-1.18
		c-0.236-0.594-0.473-1.184-0.473-1.774c0-0.59,0.236-1.18,0.473-1.77c0.354-0.472,0.825-0.944,1.302-1.18
		c0.59-0.358,1.18-0.476,1.771-0.476c0.708,0,1.298,0.118,1.77,0.476c0.59,0.236,1.066,0.708,1.302,1.18
		c0.354,0.59,0.473,1.18,0.473,1.77c0,0.59-0.118,1.18-0.473,1.774c-0.235,0.472-0.712,0.944-1.302,1.18
		C215.754,16.635,215.164,16.753,214.456,16.753L214.456,16.753z M214.456,16.164c0.59,0,1.062-0.118,1.533-0.354
		c0.473-0.236,0.826-0.59,1.066-1.062c0.236-0.476,0.354-0.948,0.354-1.42s-0.118-0.944-0.354-1.416
		c-0.24-0.472-0.594-0.826-1.066-1.062c-0.472-0.236-0.943-0.354-1.533-0.354c-0.473,0-0.944,0.118-1.417,0.354
		c-0.476,0.236-0.83,0.59-1.065,1.062c-0.236,0.472-0.473,0.944-0.473,1.416s0.236,0.944,0.473,1.42
		c0.235,0.472,0.59,0.826,1.065,1.062C213.512,16.045,213.983,16.164,214.456,16.164L214.456,16.164z M213.394,11.321h1.18
		c0.236,0,0.473,0,0.708,0.118c0.236,0.118,0.354,0.236,0.473,0.472c0.118,0.118,0.235,0.354,0.235,0.59
		c0,0.236-0.117,0.472-0.235,0.59c-0.118,0.236-0.354,0.354-0.59,0.472l1.062,1.774h-0.708l-0.944-1.774h-0.235h-0.354v1.774h-0.59
		V11.321z M214.573,13.091c0.236,0,0.473-0.118,0.591-0.236c0.117,0,0.117-0.236,0.117-0.354c0-0.236,0-0.354-0.117-0.472
		c-0.118-0.118-0.354-0.118-0.591-0.118h-0.59v1.18H214.573z"/>
</g>
</svg>
